<svg xmlns="http://www.w3.org/2000/svg" xmlns:xlink="http://www.w3.org/1999/xlink" xmlns:lucid="lucid" width="1828.33" height="1283.03"><g transform="translate(1100 760)" lucid:page-tab-id="0_0"><path d="M-1500-1000h2500V500h-2500z" fill="#fff"/><path d="M-323.33-211.66h149.85v46.56h-149.85v-46.56z" fill="#6db1ff"/><path d="M-316.13-159.82h135.45v3.6h-135.45v-3.6z" fill="#578ecc"/><path d="M-316.28-193.9h13.95v5.88h-13.95v-5.88z" fill="#fff"/><path d="M-309.53-189.94c3.3 0 3.3 0 3.3 3.36v.6c0 3.24 0 3.24-3.3 3.24s-3.3 0-3.3-3.24v-.6c0-3.36 0-3.36 3.3-3.36zM-294.83-193.9h13.95v5.88h-13.95v-5.88z" fill="#fff"/><path d="M-288.08-189.94c3.3 0 3.3 0 3.3 3.36v.6c0 3.24 0 3.24-3.3 3.24s-3.3 0-3.3-3.24v-.6c0-3.36 0-3.36 3.3-3.36zM-272.18-193.9h13.95v5.88h-13.95v-5.88z" fill="#fff"/><path d="M-265.43-189.94c3.3 0 3.3 0 3.3 3.36v.6c0 3.24 0 3.24-3.3 3.24s-3.3 0-3.3-3.24v-.6c0-3.36 0-3.36 3.3-3.36zM-250.13-193.9h13.95v5.88h-13.95v-5.88z" fill="#fff"/><path d="M-243.38-189.94c3.3 0 3.3 0 3.3 3.36v.6c0 3.24 0 3.24-3.3 3.24s-3.3 0-3.3-3.24v-.6c0-3.36 0-3.36 3.3-3.36z" fill="#fff"/><path d="M-188.48-242.14c5.7 1.08 5.7 1.08 4.65 6.6l-5.4 27.48c-1.05 5.64-1.05 5.64-6.75 4.56-5.55-1.08-5.55-1.08-4.5-6.6l5.25-27.6c1.2-5.52 1.2-5.52 6.75-4.44z" fill="#6db1ff"/><path d="M-182.48-272.62c3.45.72 3.45.72 2.85 4.08l-5.7 28.68c-.6 3.36-.6 3.36-4.05 2.76-3.6-.72-3.6-.72-2.85-4.08l5.55-28.68c.6-3.36.6-3.36 4.2-2.76z" fill="#6db1ff"/><path d="M-218.78-208.06h40.2v37.92h-40.2v-37.92z" fill="#fff"/><path d="M-217.43-206.74h37.35v35.16h-37.35v-35.16z" fill="#8ac1ff"/><path d="M-199.43-205.06l-4.5 4.68h2.4l.15 6.48h4.65l-.45-6.48h2.4l-4.65-4.68zM-198.68-174.34l4.5-4.44-2.25-.12-.15-6.48-4.65-.12.45 6.48h-2.55l4.65 4.68zM-197.03-189.34l4.5 4.68.15-2.28h6.45l.3-4.56-6.6.24v-1.68l.15-.72-4.95 4.32zM-200.93-189.34l-4.5-4.56-.15 2.28-6.45-.12-.3 4.56 6.6-.24v1.8l-.15.72 4.95-4.44z" fill="#fff"/><path d="M-308.63-244.54c5.55-1.08 5.55-1.08 6.6 4.44l5.4 27.48c1.2 5.64 1.2 5.64-4.5 6.72s-5.7 1.08-6.75-4.56l-5.4-27.48c-1.05-5.52-1.05-5.52 4.65-6.6z" fill="#6db1ff"/><path d="M-314.63-275.02c3.45-.72 3.45-.72 4.2 2.76l5.55 28.68c.6 3.36.6 3.36-2.85 4.08-3.45.6-3.45.6-4.05-2.76l-5.7-28.68c-.6-3.48-.6-3.48 2.85-4.08z" fill="#6db1ff"/><use xlink:href="#a" transform="matrix(1,0,0,1,-353.33333333337214,-156.10248176147354) translate(74.78395061728395 19.444444444444443)"/><use xlink:href="#b" transform="matrix(1,0,0,1,-353.33333333337214,-156.10248176147354) translate(109.29012345679013 19.444444444444443)"/><path d="M-1003 442.3h15.8V454h-15.8V442.3zM-942.8 310.37h62.8V463.7h-62.8V310.38z" fill="#6db1ff"/><path d="M-1079 336.2h166.2v106.26H-1079V336.2z" fill="#6db1ff"/><path d="M-1071.4 342.67h151.6v95.03h-151.6v-95.03z" fill="#fff" fill-opacity=".98"/><path d="M-1072.4 454.87H-921l-7.4 25.33H-1080l7.6-25.33z" fill="#6db1ff"/><path d="M-1073.4 454.02h155l13 26.35h-155l-13-26.35z" fill="#6db1ff"/><path d="M-1020.8 473.57h55.2v5.27h-55.2v-5.27zM-1051.2 458.1h4.2v3.4h-4.2v-3.4zM-1044 458.27h4.2v3.4h-4.2v-3.4zM-1034.6 464.4h4v3.4h-4v-3.4zM-1036.2 457.93h4.2v3.4h-4.2v-3.4zM-1029.2 458.1h4.2v3.4h-4.2v-3.4zM-1022.2 457.93h4v3.4h-4v-3.4zM-979.6 458.44h4.2v3.4h-4.2v-3.4zM-973.2 458.44h4v3.4h-4v-3.4zM-967.4 458.44h4.2v3.4h-4.2v-3.4zM-960.4 458.44h4.2v3.4h-4.2v-3.4zM-953.8 458.44h4v3.4h-4v-3.4zM-961.6 464.05h4.2v3.4h-4.2v-3.4zM-946.4 458.44h4.2v3.4h-4.2v-3.4zM-1027 464.22h4.2v3.4h-4.2v-3.4zM-1019 464.22h4v3.4h-4v-3.4zM-968 463.88h3.6v3.4h-3.6v-3.4zM-975 463.88h4v3.4h-4v-3.4zM-1014.6 458.1h4v3.4h-4v-3.4zM-1007 458.27h4.2v3.4h-4.2v-3.4zM-999.8 458.1h4.2v3.4h-4.2v-3.4zM-991.8 458.1h4v3.4h-4v-3.4zM-985.4 458.27h4.2v3.4h-4.2v-3.4zM-1012 464.05h4v3.4h-4v-3.4zM-1004.4 464.05h4.2v3.4h-4.2v-3.4zM-997 464.22h4v3.4h-4v-3.4zM-990 464.22h4.2v3.4h-4.2v-3.4zM-982.6 463.88h4v3.4h-4v-3.4z" fill="#fff"/><path d="M-1079.8 480.2l174.4-.5-12.4-25.68-154.4.17-7.6 26z" fill="none"/><path d="M-898.4 318.36h11.2c1.2 0 1.2 0 1.2 1.2 0 1.18 0 1.18-1.2 1.18h-11.2c-1.2 0-1.2 0-1.2-1.2 0-1.18 0-1.18 1.2-1.18zM-898.4 323.97h11.4c1 0 1 0 1 1.02 0 1 0 1-1 1h-11.4c-1.2 0-1.2 0-1.2-1 0-1.03 0-1.03 1.2-1.03zM-942.6 334.5h30.2v1.37h-30.2v-1.36zM-912.4 334.5h1.4v108.3h-1.4V334.5z" fill="#fff"/><path d="M-942.8 442.63h31.6v1.53h-31.6v-1.53zM-942.6 451.3h24.2c1.2 0 1.2 0 1.2 1.2 0 1.35 0 1.35-1.2 1.35h-24.2c-1.2 0-1.2 0-1.2-1.36 0-1.2 0-1.2 1.2-1.2z" fill="#fff"/><path d="M-917.4 451.64l6.8 11.73-2 1.2-6.6-11.9 1.8-1.03zM-1003.8 442.3h17v1.7h-17v-1.7zM-1003.2 452.15h16.2v1.87h-16.2v-1.87z" fill="#fff"/><use xlink:href="#c" transform="matrix(1,0,0,1,-1110,480.369892840781) translate(114.59876543209876 19.444444444444443)"/><path d="M-781.93 86.8h124.87v37.7h-124.87V86.8z" fill="#6db1ff"/><path d="M-775.93 128.82h112.87v2.93h-112.87v-2.93z" fill="#578ecc"/><path d="M-772.93 93.45h11.5v4.88h-11.5v-4.86z" fill="#fff"/><path d="M-767.43 96.74c2.87 0 2.87 0 2.87 2.66v.5c0 2.64 0 2.64-2.87 2.64-2.75 0-2.75 0-2.75-2.65v-.5c0-2.66 0-2.66 2.75-2.66zM-755.06 93.45h11.5v4.88h-11.5v-4.86z" fill="#fff"/><path d="M-749.43 96.74c2.75 0 2.75 0 2.75 2.66v.5c0 2.64 0 2.64-2.75 2.64-2.88 0-2.88 0-2.88-2.65v-.5c0-2.66 0-2.66 2.87-2.66zM-736.18 93.45h11.5v4.88h-11.5v-4.86z" fill="#fff"/><path d="M-730.56 96.74c2.75 0 2.75 0 2.75 2.66v.5c0 2.64 0 2.64-2.76 2.64-2.87 0-2.87 0-2.87-2.65v-.5c0-2.66 0-2.66 2.87-2.66zM-717.93 93.45h11.62v4.88h-11.63v-4.86z" fill="#fff"/><path d="M-712.3 96.74c2.74 0 2.74 0 2.74 2.66v.5c0 2.64 0 2.64-2.75 2.64-2.76 0-2.76 0-2.76-2.65v-.5c0-2.66 0-2.66 2.75-2.66zM-694.8 89.72h33.5v30.73h-33.5V89.72z" fill="#fff"/><path d="M-693.68 90.75h31.12v28.53h-31.12V90.75z" fill="#8ac1ff"/><path d="M-772.68 108.62h11.62V113.44h-11.62v-4.82z" fill="#fff"/><path d="M-767.06 111.86c2.75 0 2.75 0 2.75 2.66v.5c0 2.65 0 2.65-2.76 2.65-2.75 0-2.75 0-2.75-2.66v-.48c0-2.66 0-2.66 2.74-2.66zM-754.8 108.62h11.62V113.44h-11.63v-4.82z" fill="#fff"/><path d="M-749.18 111.86c2.75 0 2.75 0 2.75 2.66v.5c0 2.65 0 2.65-2.75 2.65s-2.75 0-2.75-2.66v-.48c0-2.66 0-2.66 2.75-2.66zM-735.93 108.62h11.62V113.44h-11.63v-4.82z" fill="#fff"/><path d="M-730.3 111.86c2.74 0 2.74 0 2.74 2.66v.5c0 2.65 0 2.65-2.75 2.65-2.76 0-2.76 0-2.76-2.66v-.48c0-2.66 0-2.66 2.75-2.66zM-717.56 108.62h11.63V113.44h-11.63v-4.82z" fill="#fff"/><path d="M-711.93 111.86c2.75 0 2.75 0 2.75 2.66v.5c0 2.65 0 2.65-2.75 2.65s-2.75 0-2.75-2.66v-.48c0-2.66 0-2.66 2.75-2.66zM-690.18 92.06l-3.13 3.06 3.24 3.02-.12-6.08zM-690.18 112.04l-3.13 3.06 3.12 3.02v-6.08zM-666.3 118.16l3.12-3.02-3.13-3.06v6.08zM-666.18 98.27l3.12-3.02-3.12-3.06v6.07z" fill="#fff"/><path d="M-690.43 93.86h4.75v2.43h-4.75v-2.44zM-670.43 94.08h4.62v2.44h-4.63v-2.44zM-690.43 113.84h4.62v2.43h-4.63v-2.43zM-670.56 114.02h4.63v2.43h-4.63v-2.43z" fill="#fff"/><path d="M-687.93 95.48l2.12-1.62 17.37 20.97-2.13 1.62-17.37-20.97z" fill="#fff"/><path d="M-670.43 94.08l2 1.76-17.38 20.47v.02l-2.13-1.76 17.5-20.48z" fill="#fff"/><path d="M-677.8 102.68l2 2.47-.38.27-2-2.47.37-.27zM-680.06 105.02l2 2.48-.37.27-2-2.48.37-.28z" fill="#8ac1ff"/><use xlink:href="#d" transform="matrix(1,0,0,1,-811.932193809771,131.79480632550866) translate(59.84567901234568 19.444444444444443)"/><path d="M-730.48 442.3h15.8V454h-15.8V442.3zM-670.28 310.37h62.8V463.7h-62.8V310.38z" fill="#6db1ff"/><path d="M-806.48 336.2h166.2v106.26h-166.2V336.2z" fill="#6db1ff"/><path d="M-798.88 342.67h151.6v95.03h-151.6v-95.03z" fill="#fff" fill-opacity=".98"/><path d="M-799.88 454.87h151.4l-7.4 25.33h-151.6l7.6-25.33z" fill="#6db1ff"/><path d="M-800.88 454.02h155l13 26.35h-155l-13-26.35z" fill="#6db1ff"/><path d="M-748.28 473.57h55.2v5.27h-55.2v-5.27zM-778.68 458.1h4.2v3.4h-4.2v-3.4zM-771.48 458.27h4.2v3.4h-4.2v-3.4zM-762.08 464.4h4v3.4h-4v-3.4zM-763.68 457.93h4.2v3.4h-4.2v-3.4zM-756.68 458.1h4.2v3.4h-4.2v-3.4zM-749.68 457.93h4v3.4h-4v-3.4zM-707.08 458.44h4.2v3.4h-4.2v-3.4zM-700.68 458.44h4v3.4h-4v-3.4zM-694.88 458.44h4.2v3.4h-4.2v-3.4zM-687.88 458.44h4.2v3.4h-4.2v-3.4zM-681.28 458.44h4v3.4h-4v-3.4zM-689.08 464.05h4.2v3.4h-4.2v-3.4zM-673.88 458.44h4.2v3.4h-4.2v-3.4zM-754.48 464.22h4.2v3.4h-4.2v-3.4zM-746.48 464.22h4v3.4h-4v-3.4zM-695.48 463.88h3.6v3.4h-3.6v-3.4zM-702.48 463.88h4v3.4h-4v-3.4zM-742.08 458.1h4v3.4h-4v-3.4zM-734.48 458.27h4.2v3.4h-4.2v-3.4zM-727.28 458.1h4.2v3.4h-4.2v-3.4zM-719.28 458.1h4v3.4h-4v-3.4zM-712.88 458.27h4.2v3.4h-4.2v-3.4zM-739.48 464.05h4v3.4h-4v-3.4zM-731.88 464.05h4.2v3.4h-4.2v-3.4zM-724.48 464.22h4v3.4h-4v-3.4zM-717.48 464.22h4.2v3.4h-4.2v-3.4zM-710.08 463.88h4v3.4h-4v-3.4z" fill="#fff"/><path d="M-807.28 480.2l174.4-.5-12.4-25.68-154.4.17-7.6 26z" fill="none"/><path d="M-625.88 318.36h11.2c1.2 0 1.2 0 1.2 1.2 0 1.18 0 1.18-1.2 1.18h-11.2c-1.2 0-1.2 0-1.2-1.2 0-1.18 0-1.18 1.2-1.18zM-625.88 323.97h11.4c1 0 1 0 1 1.02 0 1 0 1-1 1h-11.4c-1.2 0-1.2 0-1.2-1 0-1.03 0-1.03 1.2-1.03zM-670.08 334.5h30.2v1.37h-30.2v-1.36zM-639.88 334.5h1.4v108.3h-1.4V334.5z" fill="#fff"/><path d="M-670.28 442.63h31.6v1.53h-31.6v-1.53zM-670.08 451.3h24.2c1.2 0 1.2 0 1.2 1.2 0 1.35 0 1.35-1.2 1.35h-24.2c-1.2 0-1.2 0-1.2-1.36 0-1.2 0-1.2 1.2-1.2z" fill="#fff"/><path d="M-644.88 451.64l6.8 11.73-2 1.2-6.6-11.9 1.8-1.03zM-731.28 442.3h17v1.7h-17v-1.7zM-730.68 452.15h16.2v1.87h-16.2v-1.87z" fill="#fff"/><use xlink:href="#c" transform="matrix(1,0,0,1,-837.4842134025516,480.369892840781) translate(114.59876543209876 19.444444444444443)"/><path d="M-989.47 319.83h-.95V218.35h.95zm207.04-210.06h-201.5l-.88.07-.85.2-.8.33-.74.46-.65.56-.56.65-.46.74-.34.8-.2.83-.07.88v81.72h-.95v-81.74l.08-1 .24-1 .4-.92.52-.87.66-.78.77-.66.87-.54.94-.38.98-.24 1-.08h201.53z" stroke="#3a414a" stroke-width=".05" fill="#3a414a"/><path d="M-781.93 109.77h-.52v-.95h.52z" fill="#3a414a"/><path stroke="#3a414a" stroke-width=".05" fill="#3a414a"/><path d="M-989.94 334.6l-4.64-14.27h9.27z" fill="#3a414a"/><path d="M-989.94 336.13l-5.3-16.28h10.6zm-3.98-15.33l3.98 12.25 3.98-12.25z" stroke="#3a414a" stroke-width=".05" fill="#3a414a"/><use xlink:href="#e" transform="matrix(1,0,0,1,-1015.0786596119929,197.02053548964577) translate(0 14.222222222222223)"/><use xlink:href="#f" transform="matrix(1,0,0,1,-1015.0786596119929,197.02053548964577) translate(40.39506172839506 14.222222222222223)"/><path d="M-391.56 442.3h15.8V454h-15.8V442.3zM-331.36 310.37h62.8V463.7h-62.8V310.38z" fill="#6db1ff"/><path d="M-467.56 336.2h166.2v106.26h-166.2V336.2z" fill="#6db1ff"/><path d="M-459.95 342.67h151.6v95.03h-151.6v-95.03z" fill="#fff" fill-opacity=".98"/><path d="M-460.95 454.87h151.4l-7.4 25.33h-151.6l7.6-25.33z" fill="#6db1ff"/><path d="M-461.95 454.02h155l13 26.35h-155l-13-26.35z" fill="#6db1ff"/><path d="M-409.36 473.57h55.2v5.27h-55.2v-5.27zM-439.75 458.1h4.2v3.4h-4.2v-3.4zM-432.56 458.27h4.2v3.4h-4.2v-3.4zM-423.15 464.4h4v3.4h-4v-3.4zM-424.75 457.93h4.2v3.4h-4.2v-3.4zM-417.75 458.1h4.2v3.4h-4.2v-3.4zM-410.75 457.93h4v3.4h-4v-3.4zM-368.15 458.44h4.2v3.4h-4.2v-3.4zM-361.75 458.44h4v3.4h-4v-3.4zM-355.95 458.44h4.2v3.4h-4.2v-3.4zM-348.95 458.44h4.2v3.4h-4.2v-3.4zM-342.36 458.44h4v3.4h-4v-3.4zM-350.15 464.05h4.2v3.4h-4.2v-3.4zM-334.95 458.44h4.2v3.4h-4.2v-3.4zM-415.56 464.22h4.2v3.4h-4.2v-3.4zM-407.56 464.22h4v3.4h-4v-3.4zM-356.56 463.88h3.6v3.4h-3.6v-3.4zM-363.56 463.88h4v3.4h-4v-3.4zM-403.15 458.1h4v3.4h-4v-3.4zM-395.56 458.27h4.2v3.4h-4.2v-3.4zM-388.36 458.1h4.2v3.4h-4.2v-3.4zM-380.36 458.1h4v3.4h-4v-3.4zM-373.95 458.27h4.2v3.4h-4.2v-3.4zM-400.56 464.05h4v3.4h-4v-3.4zM-392.95 464.05h4.2v3.4h-4.2v-3.4zM-385.56 464.22h4v3.4h-4v-3.4zM-378.56 464.22h4.2v3.4h-4.2v-3.4zM-371.15 463.88h4v3.4h-4v-3.4z" fill="#fff"/><path d="M-468.36 480.2l174.4-.5-12.4-25.68-154.4.17-7.6 26z" fill="none"/><path d="M-286.95 318.36h11.2c1.2 0 1.2 0 1.2 1.2 0 1.18 0 1.18-1.2 1.18h-11.2c-1.2 0-1.2 0-1.2-1.2 0-1.18 0-1.18 1.2-1.18zM-286.95 323.97h11.4c1 0 1 0 1 1.02 0 1 0 1-1 1h-11.4c-1.2 0-1.2 0-1.2-1 0-1.03 0-1.03 1.2-1.03zM-331.15 334.5h30.2v1.37h-30.2v-1.36zM-300.95 334.5h1.4v108.3h-1.4V334.5z" fill="#fff"/><path d="M-331.36 442.63h31.6v1.53h-31.6v-1.53zM-331.15 451.3h24.2c1.2 0 1.2 0 1.2 1.2 0 1.35 0 1.35-1.2 1.35h-24.2c-1.2 0-1.2 0-1.2-1.36 0-1.2 0-1.2 1.2-1.2z" fill="#fff"/><path d="M-305.95 451.64l6.8 11.73-2 1.2-6.6-11.9 1.8-1.03zM-392.36 442.3h17v1.7h-17v-1.7zM-391.75 452.15h16.2v1.87h-16.2v-1.87z" fill="#fff"/><use xlink:href="#c" transform="matrix(1,0,0,1,-498.55540935886347,480.369892840781) translate(114.59876543209876 19.444444444444443)"/><path d="M-303.8 86.8h124.9v37.7h-124.9V86.8z" fill="#6db1ff"/><path d="M-297.8 128.82h112.9v2.93h-112.9v-2.93z" fill="#578ecc"/><path d="M-294.8 93.45h11.5v4.88h-11.5v-4.86z" fill="#fff"/><path d="M-289.3 96.74c2.9 0 2.9 0 2.9 2.66v.5c0 2.64 0 2.64-2.9 2.64-2.74 0-2.74 0-2.74-2.65v-.5c0-2.66 0-2.66 2.75-2.66zM-276.9 93.45h11.5v4.88h-11.5v-4.86z" fill="#fff"/><path d="M-271.3 96.74c2.76 0 2.76 0 2.76 2.66v.5c0 2.64 0 2.64-2.75 2.64-2.86 0-2.86 0-2.86-2.65v-.5c0-2.66 0-2.66 2.87-2.66zM-258.04 93.45h11.5v4.88h-11.5v-4.86z" fill="#fff"/><path d="M-252.4 96.74c2.74 0 2.74 0 2.74 2.66v.5c0 2.64 0 2.64-2.75 2.64-2.9 0-2.9 0-2.9-2.65v-.5c0-2.66 0-2.66 2.9-2.66zM-239.8 93.45h11.64v4.88h-11.63v-4.86z" fill="#fff"/><path d="M-234.16 96.74c2.75 0 2.75 0 2.75 2.66v.5c0 2.64 0 2.64-2.76 2.64-2.75 0-2.75 0-2.75-2.65v-.5c0-2.66 0-2.66 2.74-2.66zM-216.66 89.72h33.5v30.73h-33.5V89.72z" fill="#fff"/><path d="M-215.54 90.75h31.13v28.53h-31.14V90.75z" fill="#8ac1ff"/><path d="M-294.54 108.62h11.63V113.44h-11.64v-4.82z" fill="#fff"/><path d="M-288.9 111.86c2.74 0 2.74 0 2.74 2.66v.5c0 2.65 0 2.65-2.75 2.65-2.76 0-2.76 0-2.76-2.66v-.48c0-2.66 0-2.66 2.75-2.66zM-276.66 108.62h11.62V113.44h-11.62v-4.82z" fill="#fff"/><path d="M-271.04 111.86c2.75 0 2.75 0 2.75 2.66v.5c0 2.65 0 2.65-2.74 2.65-2.75 0-2.75 0-2.75-2.66v-.48c0-2.66 0-2.66 2.76-2.66zM-257.8 108.62h11.64V113.44h-11.63v-4.82z" fill="#fff"/><path d="M-252.16 111.86c2.75 0 2.75 0 2.75 2.66v.5c0 2.65 0 2.65-2.76 2.65-2.75 0-2.75 0-2.75-2.66v-.48c0-2.66 0-2.66 2.74-2.66zM-239.4 108.62h11.6V113.44h-11.6v-4.82z" fill="#fff"/><path d="M-233.8 111.86c2.76 0 2.76 0 2.76 2.66v.5c0 2.65 0 2.65-2.75 2.65-2.74 0-2.74 0-2.74-2.66v-.48c0-2.66 0-2.66 2.75-2.66zM-212.04 92.06l-3.12 3.06 3.25 3.02-.14-6.08zM-212.04 112.04l-3.12 3.06 3.12 3.02v-6.08zM-188.16 118.16l3.12-3.02-3.12-3.06v6.08zM-188.04 98.27l3.13-3.02-3.14-3.06v6.07z" fill="#fff"/><path d="M-212.3 93.86h4.76v2.43h-4.75v-2.44zM-192.3 94.08h4.64v2.44h-4.63v-2.44zM-212.3 113.84h4.64v2.43h-4.63v-2.43zM-192.4 114.02h4.6v2.43h-4.6v-2.43z" fill="#fff"/><path d="M-209.8 95.48l2.14-1.62 17.37 20.97-2.1 1.62-17.4-20.97z" fill="#fff"/><path d="M-192.3 94.08l2 1.76-17.36 20.47v.02l-2.13-1.76 17.5-20.48z" fill="#fff"/><path d="M-199.66 102.68l2 2.47-.38.27-2-2.47.38-.27zM-201.9 105.02l2 2.48-.4.27-2-2.48.4-.28z" fill="#8ac1ff"/><use xlink:href="#d" transform="matrix(1,0,0,1,-333.7870766639244,131.79480632550866) translate(59.84567901234568 19.444444444444443)"/><path d="M-118.15 443.28h15.8V455h-15.8V443.3zM-57.95 311.36h62.8V464.7h-62.8V311.36z" fill="#6db1ff"/><path d="M-194.15 337.2h166.2v106.25h-166.2V337.2z" fill="#6db1ff"/><path d="M-186.55 343.66h151.6v95.03h-151.6v-95.04z" fill="#fff" fill-opacity=".98"/><path d="M-187.55 455.86h151.4l-7.4 25.33h-151.6l7.6-25.34z" fill="#6db1ff"/><path d="M-188.55 455h155l13 26.36h-155l-13-26.35z" fill="#6db1ff"/><path d="M-135.95 474.56h55.2v5.27h-55.2v-5.27zM-166.35 459.1h4.2v3.4h-4.2v-3.4zM-159.15 459.26h4.2v3.4h-4.2v-3.4zM-149.75 465.38h4v3.4h-4v-3.4zM-151.35 458.92h4.2v3.4h-4.2v-3.4zM-144.35 459.1h4.2v3.4h-4.2v-3.4zM-137.35 458.92h4v3.4h-4v-3.4zM-94.75 459.43h4.2v3.4h-4.2v-3.4zM-88.35 459.43h4v3.4h-4v-3.4zM-82.55 459.43h4.2v3.4h-4.2v-3.4zM-75.55 459.43h4.2v3.4h-4.2v-3.4zM-68.95 459.43h4v3.4h-4v-3.4zM-76.75 465.04h4.2v3.4h-4.2v-3.4zM-61.55 459.43h4.2v3.4h-4.2v-3.4zM-142.15 465.2h4.2v3.4h-4.2v-3.4zM-134.15 465.2h4v3.4h-4v-3.4zM-83.15 464.87h3.6v3.4h-3.6v-3.4zM-90.15 464.87h4v3.4h-4v-3.4zM-129.75 459.1h4v3.4h-4v-3.4zM-122.15 459.26h4.2v3.4h-4.2v-3.4zM-114.95 459.1h4.2v3.4h-4.2v-3.4zM-106.95 459.1h4v3.4h-4v-3.4zM-100.55 459.26h4.2v3.4h-4.2v-3.4zM-127.15 465.04h4v3.4h-4v-3.4zM-119.55 465.04h4.2v3.4h-4.2v-3.4zM-112.15 465.2h4v3.4h-4v-3.4zM-105.15 465.2h4.2v3.4h-4.2v-3.4zM-97.75 464.87h4v3.4h-4v-3.4z" fill="#fff"/><path d="M-194.95 481.2l174.4-.52-12.4-25.67-154.4.18-7.6 26z" fill="none"/><path d="M-13.55 319.35h11.2c1.2 0 1.2 0 1.2 1.2 0 1.18 0 1.18-1.2 1.18h-11.2c-1.2 0-1.2 0-1.2-1.2 0-1.18 0-1.18 1.2-1.18zM-13.55 324.96h11.4c1 0 1 0 1 1.02s0 1.02-1 1.02h-11.4c-1.2 0-1.2 0-1.2-1.02s0-1.02 1.2-1.02zM-57.75 335.5h30.2v1.36h-30.2v-1.36zM-27.55 335.5h1.4v108.3h-1.4V335.5z" fill="#fff"/><path d="M-57.95 443.62h31.6v1.53h-31.6v-1.53zM-57.75 452.3h24.2c1.2 0 1.2 0 1.2 1.18 0 1.36 0 1.36-1.2 1.36h-24.2c-1.2 0-1.2 0-1.2-1.36 0-1.2 0-1.2 1.2-1.2z" fill="#fff"/><path d="M-32.55 452.63l6.8 11.73-2 1.2-6.6-11.9 1.8-1.03zM-118.95 443.28h17v1.7h-17v-1.7zM-118.35 453.14h16.2V455h-16.2v-1.86z" fill="#fff"/><use xlink:href="#c" transform="matrix(1,0,0,1,-225.15432098769313,481.35876107915755) translate(114.59876543209876 19.444444444444443)"/><path d="M-378.02 319.83h-.95V196.06h.95zm73.73-210.06h-68.18l-.88.07-.84.2-.8.33-.75.46-.65.56-.57.65-.45.74-.33.8-.2.83-.07.88v59.43h-.95v-59.45l.08-1 .24-1 .4-.92.52-.87.66-.78.77-.66.86-.54.94-.38 1-.24.98-.08h68.23z" stroke="#3a414a" stroke-width=".05" fill="#3a414a"/><path d="M-303.8 109.77h-.5v-.95h.5z" fill="#3a414a"/><path stroke="#3a414a" stroke-width=".05" fill="#3a414a"/><path d="M-378.5 334.6l-4.63-14.27h9.27z" fill="#3a414a"/><path d="M-378.5 336.13l-5.3-16.28h10.6zm-3.98-15.33l3.98 12.25 3.98-12.25z" stroke="#3a414a" stroke-width=".05" fill="#3a414a"/><use xlink:href="#e" transform="matrix(1,0,0,1,-403.63406897085633,174.7300879975801) translate(0 14.222222222222223)"/><use xlink:href="#f" transform="matrix(1,0,0,1,-403.63406897085633,174.7300879975801) translate(40.39506172839506 14.222222222222223)"/><path d="M-794.43-211.66h149.85v46.56h-149.85v-46.56z" fill="#6db1ff"/><path d="M-787.23-159.82h135.45v3.6h-135.45v-3.6z" fill="#578ecc"/><path d="M-787.38-193.9h13.95v5.88h-13.95v-5.88z" fill="#fff"/><path d="M-780.63-189.94c3.3 0 3.3 0 3.3 3.36v.6c0 3.24 0 3.24-3.3 3.24s-3.3 0-3.3-3.24v-.6c0-3.36 0-3.36 3.3-3.36zM-765.93-193.9h13.95v5.88h-13.95v-5.88z" fill="#fff"/><path d="M-759.18-189.94c3.3 0 3.3 0 3.3 3.36v.6c0 3.24 0 3.24-3.3 3.24s-3.3 0-3.3-3.24v-.6c0-3.36 0-3.36 3.3-3.36zM-743.28-193.9h13.95v5.88h-13.95v-5.88z" fill="#fff"/><path d="M-736.53-189.94c3.3 0 3.3 0 3.3 3.36v.6c0 3.24 0 3.24-3.3 3.24s-3.3 0-3.3-3.24v-.6c0-3.36 0-3.36 3.3-3.36zM-721.23-193.9h13.95v5.88h-13.95v-5.88z" fill="#fff"/><path d="M-714.48-189.94c3.3 0 3.3 0 3.3 3.36v.6c0 3.24 0 3.24-3.3 3.24s-3.3 0-3.3-3.24v-.6c0-3.36 0-3.36 3.3-3.36z" fill="#fff"/><path d="M-659.58-242.14c5.7 1.08 5.7 1.08 4.65 6.6l-5.4 27.48c-1.05 5.64-1.05 5.64-6.75 4.56-5.55-1.08-5.55-1.08-4.5-6.6l5.25-27.6c1.2-5.52 1.2-5.52 6.75-4.44z" fill="#6db1ff"/><path d="M-653.58-272.62c3.45.72 3.45.72 2.85 4.08l-5.7 28.68c-.6 3.36-.6 3.36-4.05 2.76-3.6-.72-3.6-.72-2.85-4.08l5.55-28.68c.6-3.36.6-3.36 4.2-2.76z" fill="#6db1ff"/><path d="M-689.88-208.06h40.2v37.92h-40.2v-37.92z" fill="#fff"/><path d="M-688.53-206.74h37.35v35.16h-37.35v-35.16z" fill="#8ac1ff"/><path d="M-670.53-205.06l-4.5 4.68h2.4l.15 6.48h4.65l-.45-6.48h2.4l-4.65-4.68zM-669.78-174.34l4.5-4.44-2.25-.12-.15-6.48-4.65-.12.45 6.48h-2.55l4.65 4.68zM-668.13-189.34l4.5 4.68.15-2.28h6.45l.3-4.56-6.6.24v-1.68l.15-.72-4.95 4.32zM-672.03-189.34l-4.5-4.56-.15 2.28-6.45-.12-.3 4.56 6.6-.24v1.8l-.15.72 4.95-4.44z" fill="#fff"/><path d="M-779.73-244.54c5.55-1.08 5.55-1.08 6.6 4.44l5.4 27.48c1.2 5.64 1.2 5.64-4.5 6.72s-5.7 1.08-6.75-4.56l-5.4-27.48c-1.05-5.52-1.05-5.52 4.65-6.6z" fill="#6db1ff"/><path d="M-785.73-275.02c3.45-.72 3.45-.72 4.2 2.76l5.55 28.68c.6 3.36.6 3.36-2.85 4.08-3.45.6-3.45.6-4.05-2.76l-5.7-28.68c-.6-3.48-.6-3.48 2.85-4.08z" fill="#6db1ff"/><use xlink:href="#g" transform="matrix(1,0,0,1,-824.432193809771,-156.10248176147354) translate(71.75925925925927 19.444444444444443)"/><use xlink:href="#h" transform="matrix(1,0,0,1,-824.432193809771,-156.10248176147354) translate(106.26543209876544 19.444444444444443)"/><path d="M-780.43-496.87c-13.26 0-24-10.74-24-24 0-10.6 6.5-19.54 16.58-22.82-.58-31.17 39.42-37.17 55.42-25.17 8-18 48-12 48 6 24-6 48 18 32 48 16 24 0 54-32 42-8 15.6-40 15.6-48 0-16 12-48 6-48-24z" stroke="#000" stroke-opacity="0" fill="#cfe4ff"/><use xlink:href="#i" transform="matrix(1,0,0,1,-799.432193809771,-575.8663522066472) translate(35.876543209876544 59.02777777777778)"/><path d="M205-218.58h149.85v46.56H205v-46.56z" fill="#6db1ff"/><path d="M212.2-166.74h135.45v3.6H212.2v-3.6z" fill="#578ecc"/><path d="M212.05-200.82H226v5.88h-13.95v-5.88z" fill="#fff"/><path d="M218.8-196.86c3.3 0 3.3 0 3.3 3.36v.6c0 3.24 0 3.24-3.3 3.24s-3.3 0-3.3-3.24v-.6c0-3.36 0-3.36 3.3-3.36zM233.5-200.82h13.95v5.88H233.5v-5.88z" fill="#fff"/><path d="M240.25-196.86c3.3 0 3.3 0 3.3 3.36v.6c0 3.24 0 3.24-3.3 3.24s-3.3 0-3.3-3.24v-.6c0-3.36 0-3.36 3.3-3.36zM256.15-200.82h13.95v5.88h-13.95v-5.88z" fill="#fff"/><path d="M262.9-196.86c3.3 0 3.3 0 3.3 3.36v.6c0 3.24 0 3.24-3.3 3.24s-3.3 0-3.3-3.24v-.6c0-3.36 0-3.36 3.3-3.36zM278.2-200.82h13.95v5.88H278.2v-5.88z" fill="#fff"/><path d="M284.95-196.86c3.3 0 3.3 0 3.3 3.36v.6c0 3.24 0 3.24-3.3 3.24s-3.3 0-3.3-3.24v-.6c0-3.36 0-3.36 3.3-3.36z" fill="#fff"/><path d="M339.85-249.06c5.7 1.08 5.7 1.08 4.65 6.6l-5.4 27.48c-1.05 5.64-1.05 5.64-6.75 4.56-5.55-1.08-5.55-1.08-4.5-6.6l5.25-27.6c1.2-5.52 1.2-5.52 6.75-4.44z" fill="#6db1ff"/><path d="M345.85-279.54c3.45.72 3.45.72 2.85 4.08l-5.7 28.68c-.6 3.36-.6 3.36-4.05 2.76-3.6-.72-3.6-.72-2.85-4.08l5.55-28.68c.6-3.36.6-3.36 4.2-2.76z" fill="#6db1ff"/><path d="M309.55-214.98h40.2v37.92h-40.2v-37.92z" fill="#fff"/><path d="M310.9-213.66h37.35v35.16H310.9v-35.16z" fill="#8ac1ff"/><path d="M328.9-211.98l-4.5 4.68h2.4l.15 6.48h4.65l-.45-6.48h2.4l-4.65-4.68zM329.65-181.26l4.5-4.44-2.25-.12-.15-6.48-4.65-.12.45 6.48H325l4.65 4.68zM331.3-196.26l4.5 4.68.15-2.28h6.45l.3-4.56-6.6.24v-1.68l.15-.72-4.95 4.32zM327.4-196.26l-4.5-4.56-.15 2.28-6.45-.12-.3 4.56 6.6-.24v1.8l-.15.72 4.95-4.44z" fill="#fff"/><path d="M219.7-251.46c5.55-1.08 5.55-1.08 6.6 4.44l5.4 27.48c1.2 5.64 1.2 5.64-4.5 6.72s-5.7 1.08-6.75-4.56l-5.4-27.48c-1.05-5.52-1.05-5.52 4.65-6.6z" fill="#6db1ff"/><path d="M213.7-281.94c3.45-.72 3.45-.72 4.2 2.76l5.55 28.68c.6 3.36.6 3.36-2.85 4.08-3.45.6-3.45.6-4.05-2.76l-5.7-28.68c-.6-3.48-.6-3.48 2.85-4.08z" fill="#6db1ff"/><use xlink:href="#j" transform="matrix(1,0,0,1,175,-163.01904126892123) translate(66.17283950617283 19.444444444444443)"/><use xlink:href="#k" transform="matrix(1,0,0,1,175,-163.01904126892123) translate(106.85185185185185 19.444444444444443)"/><path d="M264.05 442.3h15.8V454h-15.8V442.3zM324.25 310.37h62.8V463.7h-62.8V310.38z" fill="#6db1ff"/><path d="M188.05 336.2h166.2v106.26h-166.2V336.2z" fill="#6db1ff"/><path d="M195.65 342.67h151.6v95.03h-151.6v-95.03z" fill="#fff" fill-opacity=".98"/><path d="M194.65 454.87h151.4l-7.4 25.33h-151.6l7.6-25.33z" fill="#6db1ff"/><path d="M193.65 454.02h155l13 26.35h-155l-13-26.35z" fill="#6db1ff"/><path d="M246.25 473.57h55.2v5.27h-55.2v-5.27zM215.85 458.1h4.2v3.4h-4.2v-3.4zM223.05 458.27h4.2v3.4h-4.2v-3.4zM232.45 464.4h4v3.4h-4v-3.4zM230.85 457.93h4.2v3.4h-4.2v-3.4zM237.85 458.1h4.2v3.4h-4.2v-3.4zM244.85 457.93h4v3.4h-4v-3.4zM287.45 458.44h4.2v3.4h-4.2v-3.4zM293.85 458.44h4v3.4h-4v-3.4zM299.65 458.44h4.2v3.4h-4.2v-3.4zM306.65 458.44h4.2v3.4h-4.2v-3.4zM313.25 458.44h4v3.4h-4v-3.4zM305.45 464.05h4.2v3.4h-4.2v-3.4zM320.65 458.44h4.2v3.4h-4.2v-3.4zM240.05 464.22h4.2v3.4h-4.2v-3.4zM248.05 464.22h4v3.4h-4v-3.4zM299.05 463.88h3.6v3.4h-3.6v-3.4zM292.05 463.88h4v3.4h-4v-3.4zM252.45 458.1h4v3.4h-4v-3.4zM260.05 458.27h4.2v3.4h-4.2v-3.4zM267.25 458.1h4.2v3.4h-4.2v-3.4zM275.25 458.1h4v3.4h-4v-3.4zM281.65 458.27h4.2v3.4h-4.2v-3.4zM255.05 464.05h4v3.4h-4v-3.4zM262.65 464.05h4.2v3.4h-4.2v-3.4zM270.05 464.22h4v3.4h-4v-3.4zM277.05 464.22h4.2v3.4h-4.2v-3.4zM284.45 463.88h4v3.4h-4v-3.4z" fill="#fff"/><path d="M187.25 480.2l174.4-.5-12.4-25.68-154.4.17-7.6 26z" fill="none"/><path d="M368.65 318.36h11.2c1.2 0 1.2 0 1.2 1.2 0 1.18 0 1.18-1.2 1.18h-11.2c-1.2 0-1.2 0-1.2-1.2 0-1.18 0-1.18 1.2-1.18zM368.65 323.97h11.4c1 0 1 0 1 1.02 0 1 0 1-1 1h-11.4c-1.2 0-1.2 0-1.2-1 0-1.03 0-1.03 1.2-1.03zM324.45 334.5h30.2v1.37h-30.2v-1.36zM354.65 334.5h1.4v108.3h-1.4V334.5z" fill="#fff"/><path d="M324.25 442.63h31.6v1.53h-31.6v-1.53zM324.45 451.3h24.2c1.2 0 1.2 0 1.2 1.2 0 1.35 0 1.35-1.2 1.35h-24.2c-1.2 0-1.2 0-1.2-1.36 0-1.2 0-1.2 1.2-1.2z" fill="#fff"/><path d="M349.65 451.64l6.8 11.73-2 1.2-6.6-11.9 1.8-1.03zM263.25 442.3h17v1.7h-17v-1.7zM263.85 452.15h16.2v1.87h-16.2v-1.87z" fill="#fff"/><use xlink:href="#c" transform="matrix(1,0,0,1,157.04625666944776,480.369892840781) translate(114.59876543209876 19.444444444444443)"/><path d="M224.55 79.88h124.87v37.7H224.55V79.9z" fill="#6db1ff"/><path d="M230.55 121.9h112.87v2.93H230.55v-2.92z" fill="#578ecc"/><path d="M233.55 86.54h11.5v4.86h-11.5v-4.86z" fill="#fff"/><path d="M239.05 89.82c2.87 0 2.87 0 2.87 2.66v.5c0 2.65 0 2.65-2.87 2.65-2.75 0-2.75 0-2.75-2.66v-.5c0-2.65 0-2.65 2.75-2.65zM251.42 86.54h11.5v4.86h-11.5v-4.86z" fill="#fff"/><path d="M257.05 89.82c2.75 0 2.75 0 2.75 2.66v.5c0 2.65 0 2.65-2.75 2.65-2.88 0-2.88 0-2.88-2.66v-.5c0-2.65 0-2.65 2.88-2.65zM270.3 86.54h11.5v4.86h-11.5v-4.86z" fill="#fff"/><path d="M275.92 89.82c2.75 0 2.75 0 2.75 2.66v.5c0 2.65 0 2.65-2.75 2.65-2.87 0-2.87 0-2.87-2.66v-.5c0-2.65 0-2.65 2.87-2.65zM288.55 86.54h11.62v4.86h-11.62v-4.86z" fill="#fff"/><path d="M294.17 89.82c2.75 0 2.75 0 2.75 2.66v.5c0 2.65 0 2.65-2.75 2.65s-2.75 0-2.75-2.66v-.5c0-2.65 0-2.65 2.75-2.65zM311.67 82.8h33.5v30.74h-33.5V82.8z" fill="#fff"/><path d="M312.8 83.84h31.12v28.53H312.8V83.84z" fill="#8ac1ff"/><path d="M233.8 101.7h11.62v4.82H233.8v-4.82z" fill="#fff"/><path d="M239.42 104.94c2.75 0 2.75 0 2.75 2.66v.5c0 2.65 0 2.65-2.75 2.65s-2.75 0-2.75-2.66v-.5c0-2.66 0-2.66 2.75-2.66zM251.67 101.7h11.63v4.82h-11.63v-4.82z" fill="#fff"/><path d="M257.3 104.94c2.75 0 2.75 0 2.75 2.66v.5c0 2.65 0 2.65-2.75 2.65s-2.75 0-2.75-2.66v-.5c0-2.66 0-2.66 2.75-2.66zM270.55 101.7h11.62v4.82h-11.62v-4.82z" fill="#fff"/><path d="M276.17 104.94c2.75 0 2.75 0 2.75 2.66v.5c0 2.65 0 2.65-2.75 2.65s-2.75 0-2.75-2.66v-.5c0-2.66 0-2.66 2.75-2.66zM288.92 101.7h11.63v4.82h-11.63v-4.82z" fill="#fff"/><path d="M294.55 104.94c2.75 0 2.75 0 2.75 2.66v.5c0 2.65 0 2.65-2.75 2.65s-2.75 0-2.75-2.66v-.5c0-2.66 0-2.66 2.75-2.66zM316.3 85.14l-3.13 3.06 3.25 3.02-.12-6.08zM316.3 105.12l-3.13 3.06 3.13 3.02v-6.08zM340.17 111.24l3.13-3-3.13-3.07v6.07zM340.3 91.35l3.12-3-3.12-3.07v6.07z" fill="#fff"/><path d="M316.05 86.94h4.75v2.43h-4.75v-2.43zM336.05 87.17h4.62v2.43h-4.62v-2.43zM316.05 106.92h4.62v2.43h-4.62v-2.43zM335.92 107.1h4.63v2.43h-4.63v-2.43z" fill="#fff"/><path d="M318.55 88.56l2.12-1.62 17.38 20.97-2.13 1.63-17.37-20.97z" fill="#fff"/><path d="M336.05 87.17l2 1.75-17.38 20.48-2.12-1.76 17.5-20.47z" fill="#fff"/><path d="M328.67 95.76l2 2.48-.37.27-2-2.47.37-.27zM326.42 98.1l2 2.48-.37.27-2-2.48.37-.27z" fill="#8ac1ff"/><use xlink:href="#d" transform="matrix(1,0,0,1,194.54625666944776,124.87824681806099) translate(59.84567901234568 19.444444444444443)"/><path d="M585.33 442.3h15.8V454h-15.8V442.3zM645.53 310.37h62.8V463.7h-62.8V310.38z" fill="#6db1ff"/><path d="M509.33 336.2h166.2v106.26h-166.2V336.2z" fill="#6db1ff"/><path d="M516.93 342.67h151.6v95.03h-151.6v-95.03z" fill="#fff" fill-opacity=".98"/><path d="M515.93 454.87h151.4l-7.4 25.33h-151.6l7.6-25.33z" fill="#6db1ff"/><path d="M514.93 454.02h155l13 26.35h-155l-13-26.35z" fill="#6db1ff"/><path d="M567.53 473.57h55.2v5.27h-55.2v-5.27zM537.13 458.1h4.2v3.4h-4.2v-3.4zM544.33 458.27h4.2v3.4h-4.2v-3.4zM553.73 464.4h4v3.4h-4v-3.4zM552.13 457.93h4.2v3.4h-4.2v-3.4zM559.13 458.1h4.2v3.4h-4.2v-3.4zM566.13 457.93h4v3.4h-4v-3.4zM608.73 458.44h4.2v3.4h-4.2v-3.4zM615.13 458.44h4v3.4h-4v-3.4zM620.93 458.44h4.2v3.4h-4.2v-3.4zM627.93 458.44h4.2v3.4h-4.2v-3.4zM634.53 458.44h4v3.4h-4v-3.4zM626.73 464.05h4.2v3.4h-4.2v-3.4zM641.93 458.44h4.2v3.4h-4.2v-3.4zM561.33 464.22h4.2v3.4h-4.2v-3.4zM569.33 464.22h4v3.4h-4v-3.4zM620.33 463.88h3.6v3.4h-3.6v-3.4zM613.33 463.88h4v3.4h-4v-3.4zM573.73 458.1h4v3.4h-4v-3.4zM581.33 458.27h4.2v3.4h-4.2v-3.4zM588.53 458.1h4.2v3.4h-4.2v-3.4zM596.53 458.1h4v3.4h-4v-3.4zM602.93 458.27h4.2v3.4h-4.2v-3.4zM576.33 464.05h4v3.4h-4v-3.4zM583.93 464.05h4.2v3.4h-4.2v-3.4zM591.33 464.22h4v3.4h-4v-3.4zM598.33 464.22h4.2v3.4h-4.2v-3.4zM605.73 463.88h4v3.4h-4v-3.4z" fill="#fff"/><path d="M508.53 480.2l174.4-.5-12.4-25.68-154.4.17-7.6 26z" fill="none"/><path d="M689.93 318.36h11.2c1.2 0 1.2 0 1.2 1.2 0 1.18 0 1.18-1.2 1.18h-11.2c-1.2 0-1.2 0-1.2-1.2 0-1.18 0-1.18 1.2-1.18zM689.93 323.97h11.4c1 0 1 0 1 1.02 0 1 0 1-1 1h-11.4c-1.2 0-1.2 0-1.2-1 0-1.03 0-1.03 1.2-1.03zM645.73 334.5h30.2v1.37h-30.2v-1.36z" fill="#fff"/><path d="M675.93 334.5h1.4v108.3h-1.4V334.5z" fill="#fff"/><path d="M645.53 442.63h31.6v1.53h-31.6v-1.53zM645.73 451.3h24.2c1.2 0 1.2 0 1.2 1.2 0 1.35 0 1.35-1.2 1.35h-24.2c-1.2 0-1.2 0-1.2-1.36 0-1.2 0-1.2 1.2-1.2z" fill="#fff"/><path d="M670.93 451.64l6.8 11.73-2 1.2-6.6-11.9 1.8-1.03zM584.53 442.3h17v1.7h-17v-1.7zM585.13 452.15h16.2v1.87h-16.2v-1.87z" fill="#fff"/><use xlink:href="#c" transform="matrix(1,0,0,1,478.33333333337214,480.369892840781) translate(114.59876543209876 19.444444444444443)"/><path d="M-719.43-155.72V-35a.28.28 0 0 1-.3.3.28.28 0 0 0-.27.27V70.4" stroke="#3a414a" fill="none"/><path d="M-718.96-155.7h-.95v-.52h.94z" stroke="#3a414a" stroke-width=".05" fill="#3a414a"/><path d="M-720 85.18l-4.63-14.27h9.26z" stroke="#3a414a" fill="#3a414a"/><use xlink:href="#l" transform="matrix(1,0,0,1,-876.1481481481483,-39.25009846652952) translate(0 14.222222222222223)"/><use xlink:href="#m" transform="matrix(1,0,0,1,-876.1481481481483,-39.25009846652952) translate(40.39506172839506 14.222222222222223)"/><use xlink:href="#n" transform="matrix(1,0,0,1,-876.1481481481483,-39.25009846652952) translate(0 39.111111111111114)"/><path d="M-247.86 70.4h-.95V7.3h.94zm0-111.1h-.95v-115.02h.94z" stroke="#3a414a" stroke-width=".05" fill="#3a414a"/><path d="M-247.86-155.7h-.95v-.52h.94z" fill="#3a414a"/><path stroke="#3a414a" stroke-width=".05" fill="#3a414a"/><path d="M-248.33 85.18l-4.64-14.27h9.27z" fill="#3a414a"/><path d="M-248.33 86.7l-5.3-16.27h10.6zm-3.98-15.3l3.97 12.24 3.98-12.25z" stroke="#3a414a" stroke-width=".05" fill="#3a414a"/><use xlink:href="#l" transform="matrix(1,0,0,1,-322.40740740744616,-40.705724027610174) translate(0 14.222222222222223)"/><use xlink:href="#m" transform="matrix(1,0,0,1,-322.40740740744616,-40.705724027610174) translate(40.39506172839506 14.222222222222223)"/><use xlink:href="#o" transform="matrix(1,0,0,1,-322.40740740744616,-40.705724027610174) translate(0 39.111111111111114)"/><path d="M280-162.64V63.5" stroke="#3a414a" fill="none"/><path d="M280.48-162.63h-.96v-.5h.96z" stroke="#3a414a" stroke-width=".05" fill="#3a414a"/><path d="M280 78.26L275.37 64h9.26z" stroke="#3a414a" fill="#3a414a"/><use xlink:href="#l" transform="matrix(1,0,0,1,288.00000000000006,-42.944116985320164) translate(0 14.222222222222223)"/><use xlink:href="#m" transform="matrix(1,0,0,1,288.00000000000006,-42.944116985320164) translate(40.39506172839506 14.222222222222223)"/><use xlink:href="#p" transform="matrix(1,0,0,1,288.00000000000006,-42.944116985320164) translate(0 39.111111111111114)"/><path d="M-104.62 320.8h-.95V197h.95zm-5.46-211.9l.98.23.94.4.87.53.78.66.66.77.53.86.4.93.23.98.08 1v60.4h-.95V115.3l-.07-.87-.2-.84-.34-.8-.45-.75-.56-.66-.65-.57-.74-.46-.8-.33-.83-.2-.9-.07h-67.28v-.95h67.32z" stroke="#3a414a" stroke-width=".05" fill="#3a414a"/><path d="M-178.4 109.77h-.5v-.95h.5z" fill="#3a414a"/><path stroke="#3a414a" stroke-width=".05" fill="#3a414a"/><path d="M-105.1 335.58l-4.63-14.26h9.27z" fill="#3a414a"/><path d="M-105.1 337.12l-5.3-16.28h10.6zm-3.98-15.33l3.98 12.24 3.98-12.25z" stroke="#3a414a" stroke-width=".05" fill="#3a414a"/><use xlink:href="#q" transform="matrix(1,0,0,1,-127.76384479721692,175.67266776897938) translate(0 14.222222222222223)"/><path d="M-724.94-464.8v236.75" stroke="#3a414a" fill="none"/><path d="M-724.47-465.03v.24h-.95v-.77z" stroke="#3a414a" stroke-width=".05" fill="#3a414a"/><path d="M-724.94-213.28l-4.64-14.27h9.27z" stroke="#3a414a" fill="#3a414a"/><use xlink:href="#e" transform="matrix(1,0,0,1,-716.9408485725587,-422.3295283633011) translate(0 14.222222222222223)"/><use xlink:href="#r" transform="matrix(1,0,0,1,-716.9408485725587,-422.3295283633011) translate(40.39506172839506 14.222222222222223)"/><path d="M-304.33-496.87c-13.26 0-24-10.74-24-24 0-10.6 6.5-19.54 16.58-22.82-.58-31.17 39.42-37.17 55.42-25.17 8-18 48-12 48 6 24-6 48 18 32 48 16 24 0 54-32 42-8 15.6-40 15.6-48 0-16 12-48 6-48-24z" stroke="#000" stroke-opacity="0" fill="#cfe4ff"/><use xlink:href="#i" transform="matrix(1,0,0,1,-323.33333333337214,-575.8663522066472) translate(35.876543209876544 59.02777777777778)"/><path d="M-248.84-464.8v236.75" stroke="#3a414a" fill="none"/><path d="M-248.37-465.03v.24h-.95v-.77z" stroke="#3a414a" stroke-width=".05" fill="#3a414a"/><path d="M-248.84-213.28l-4.64-14.27h9.27z" stroke="#3a414a" fill="#3a414a"/><use xlink:href="#e" transform="matrix(1,0,0,1,-240.84198809615987,-429.73931599936367) translate(0 14.222222222222223)"/><use xlink:href="#r" transform="matrix(1,0,0,1,-240.84198809615987,-429.73931599936367) translate(40.39506172839506 14.222222222222223)"/><path d="M219-486.65c-13.25 0-24-10.75-24-24 0-10.6 6.5-19.55 16.58-22.83C211-564.65 251-570.65 267-558.65c8-18 48-12 48 6 24-6 48 18 32 48 16 24 0 54-32 42-8 15.6-40 15.6-48 0-16 12-48 6-48-24z" stroke="#000" stroke-opacity="0" fill="#cfe4ff"/><use xlink:href="#i" transform="matrix(1,0,0,1,200,-565.65423012256) translate(35.876543209876544 59.02777777777778)"/><path d="M274.5-454.6v219.64" stroke="#3a414a" fill="none"/><path d="M274.97-454.82v.25h-.95v-.8z" stroke="#3a414a" stroke-width=".05" fill="#3a414a"/><path d="M274.5-220.2l-4.64-14.26h9.27z" stroke="#3a414a" fill="#3a414a"/><use xlink:href="#e" transform="matrix(1,0,0,1,282.4913452372123,-418.6246345452699) translate(0 14.222222222222223)"/><use xlink:href="#r" transform="matrix(1,0,0,1,282.4913452372123,-418.6246345452699) translate(40.39506172839506 14.222222222222223)"/><path d="M-700-268.44a6 6 0 0 1 6-6h228a6 6 0 0 1 6 6v48a6 6 0 0 1-6 6h-228a6 6 0 0 1-6-6z" fill="none"/><use xlink:href="#s" transform="matrix(1,0,0,1,-700,-274.4358150948069) translate(83.82716049382717 21.111111111111114)"/><use xlink:href="#t" transform="matrix(1,0,0,1,-700,-274.4358150948069) translate(110.55555555555556 21.111111111111114)"/><use xlink:href="#u" transform="matrix(1,0,0,1,-700,-274.4358150948069) translate(64.44444444444444 47.777777777777786)"/><path d="M-700-148.44a6 6 0 0 1 6-6h228a6 6 0 0 1 6 6v48a6 6 0 0 1-6 6h-228a6 6 0 0 1-6-6z" fill="none"/><use xlink:href="#v" transform="matrix(1,0,0,1,-700,-154.43581509480686) translate(51.82098765432099 21.111111111111114)"/><use xlink:href="#w" transform="matrix(1,0,0,1,-700,-154.43581509480686) translate(99.53703703703704 21.111111111111114)"/><use xlink:href="#x" transform="matrix(1,0,0,1,-700,-154.43581509480686) translate(54.59876543209876 47.777777777777786)"/><path d="M-468.56-270.1a6 6 0 0 1 6-6h133.8a6 6 0 0 1 6 6v51.33a6 6 0 0 1-6 6h-133.8a6 6 0 0 1-6-6z" fill="#fff" fill-opacity="0"/><use xlink:href="#s" transform="matrix(1,0,0,1,-463.55540935886347,-271.10248176147354) translate(0 17.77777777777778)"/><use xlink:href="#t" transform="matrix(1,0,0,1,-463.55540935886347,-271.10248176147354) translate(26.728395061728392 17.77777777777778)"/><use xlink:href="#y" transform="matrix(1,0,0,1,-463.55540935886347,-271.10248176147354) translate(0 44.44444444444444)"/><path d="M-160-270.1a6 6 0 0 1 6-6h133.8a6 6 0 0 1 6 6v51.33a6 6 0 0 1-6 6H-154a6 6 0 0 1-6-6z" fill="#fff" fill-opacity="0"/><use xlink:href="#s" transform="matrix(1,0,0,1,-155,-271.10248176147354) translate(0 17.77777777777778)"/><use xlink:href="#t" transform="matrix(1,0,0,1,-155,-271.10248176147354) translate(26.728395061728392 17.77777777777778)"/><use xlink:href="#z" transform="matrix(1,0,0,1,-155,-271.10248176147354) translate(0 44.44444444444444)"/><path d="M49.2-271.77a6 6 0 0 1 6-6H189a6 6 0 0 1 6 6v51.33a6 6 0 0 1-6 6H55.2a6 6 0 0 1-6-6z" fill="#fff" fill-opacity="0"/><use xlink:href="#s" transform="matrix(1,0,0,1,54.19753086419752,-272.7691484281402) translate(0 17.77777777777778)"/><use xlink:href="#t" transform="matrix(1,0,0,1,54.19753086419752,-272.7691484281402) translate(26.728395061728392 17.77777777777778)"/><use xlink:href="#A" transform="matrix(1,0,0,1,54.19753086419752,-272.7691484281402) translate(0 44.44444444444444)"/><path d="M-441.6-150.1a6 6 0 0 1 6-6h134.37a6 6 0 0 1 6 6v51.33a6 6 0 0 1-6 6H-435.6a6 6 0 0 1-6-6z" fill="#fff" fill-opacity="0"/><use xlink:href="#v" transform="matrix(1,0,0,1,-436.5896919964189,-151.10248176147354) translate(0 17.77777777777778)"/><use xlink:href="#w" transform="matrix(1,0,0,1,-436.5896919964189,-151.10248176147354) translate(47.716049382716044 17.77777777777778)"/><use xlink:href="#B" transform="matrix(1,0,0,1,-436.5896919964189,-151.10248176147354) translate(0 44.44444444444444)"/><path d="M-168.33-150.1a6 6 0 0 1 6-6h134.36a6 6 0 0 1 6 6v51.33a6 6 0 0 1-6 6h-134.36a6 6 0 0 1-6-6z" fill="#fff" fill-opacity="0"/><use xlink:href="#v" transform="matrix(1,0,0,1,-163.33333333337214,-151.10248176147354) translate(0 17.77777777777778)"/><use xlink:href="#w" transform="matrix(1,0,0,1,-163.33333333337214,-151.10248176147354) translate(47.716049382716044 17.77777777777778)"/><use xlink:href="#C" transform="matrix(1,0,0,1,-163.33333333337214,-151.10248176147354) translate(0 44.44444444444444)"/><path d="M60-150.1a6 6 0 0 1 6-6h134.36a6 6 0 0 1 6 6v51.33a6 6 0 0 1-6 6H66a6 6 0 0 1-6-6z" fill="#fff" fill-opacity="0"/><use xlink:href="#v" transform="matrix(1,0,0,1,65,-151.10248176147354) translate(0 17.77777777777778)"/><use xlink:href="#w" transform="matrix(1,0,0,1,65,-151.10248176147354) translate(47.716049382716044 17.77777777777778)"/><use xlink:href="#D" transform="matrix(1,0,0,1,65,-151.10248176147354) translate(0 44.44444444444444)"/><path d="M-794.43 241.2a6 6 0 0 1 6-6h146.15a6 6 0 0 1 6 6v24.68a6 6 0 0 1-6 6h-146.15a6 6 0 0 1-6-6z" fill="#fff" fill-opacity="0"/><path d="M-519.88-184.2h-105.7v-3.94h105.7zm173.8 0h-101.95v-3.94h101.96z" stroke="#3a414a" stroke-width=".05" fill="#3a414a"/><path d="M-627.6-178.66l-12.98-7.5 13-7.5z" fill="#3a414a"/><path d="M-625.62-175.24l-18.9-10.92 18.9-10.92zm-11-10.92l7.05 4.08v-8.16z" stroke="#3a414a" stroke-width=".05" fill="#3a414a"/><path d="M-329.8-186.16l-14.27 4.63v-9.27z" fill="#3a414a"/><path d="M-323.4-186.16l-22.65 7.35v-14.72zm-18.7 1.9l5.9-1.9-5.9-1.92z" stroke="#3a414a" stroke-width=".05" fill="#3a414a"/><g><use xlink:href="#E" transform="matrix(1,0,0,1,-519.8836894974975,-196.82914842814014) translate(0 14.222222222222223)"/></g><path d="M-20.17-184.2H-154.5v-3.94h134.33zm206.18 0H51.7v-3.94H186z" stroke="#3a414a" stroke-width=".05" fill="#3a414a"/><path d="M-156.5-178.66l-12.98-7.5 13-7.5z" fill="#3a414a"/><path d="M-154.52-175.24l-18.9-10.92 18.9-10.92zm-11-10.92l7.05 4.08v-8.16z" stroke="#3a414a" stroke-width=".05" fill="#3a414a"/><path d="M201-186.16l-13 7.5v-15z" fill="#3a414a"/><path d="M204.95-186.16l-18.9 10.92-.02-21.84zM190-182.08l7.05-4.08-7.06-4.08z" stroke="#3a414a" stroke-width=".05" fill="#3a414a"/><g><use xlink:href="#E" transform="matrix(1,0,0,1,-20.167592592612017,-196.8291484281402) translate(0 14.222222222222223)"/></g><path d="M285.07 319.83h-.95V212.02h.95zm0-129.15h-.95v-65.35h.95z" stroke="#3a414a" stroke-width=".05" fill="#3a414a"/><path d="M285.07 125.35h-.95v-.52h.95zm0-3.44h-.95l.95-.07z" fill="#3a414a"/><path stroke="#3a414a" stroke-width=".05" fill="#3a414a"/><path d="M284.6 334.6l-4.64-14.27h9.27z" fill="#3a414a"/><path d="M284.6 336.13l-5.3-16.28h10.6zm-3.98-15.33l3.98 12.25 3.98-12.25z" stroke="#3a414a" stroke-width=".05" fill="#3a414a"/><g><use xlink:href="#e" transform="matrix(1,0,0,1,259.46239116316565,190.68207921520738) translate(0 14.222222222222223)"/><use xlink:href="#f" transform="matrix(1,0,0,1,259.46239116316565,190.68207921520738) translate(40.39506172839506 14.222222222222223)"/></g><path d="M-386.17-684.46a6 6 0 0 1 6-6h277.77a6 6 0 0 1 6 6v48a6 6 0 0 1-6 6h-277.77a6 6 0 0 1-6-6z" fill="none"/><g><use xlink:href="#F" transform="matrix(1,0,0,1,-386.1712430113939,-690.4558179856643) translate(11.820987654320987 17.77777777777778)"/><use xlink:href="#G" transform="matrix(1,0,0,1,-386.1712430113939,-690.4558179856643) translate(80.83333333333331 17.77777777777778)"/><use xlink:href="#H" transform="matrix(1,0,0,1,-386.1712430113939,-690.4558179856643) translate(93.179012345679 17.77777777777778)"/><use xlink:href="#I" transform="matrix(1,0,0,1,-386.1712430113939,-690.4558179856643) translate(158.54938271604937 17.77777777777778)"/><use xlink:href="#J" transform="matrix(1,0,0,1,-386.1712430113939,-690.4558179856643) translate(196.75925925925924 17.77777777777778)"/><use xlink:href="#K" transform="matrix(1,0,0,1,-386.1712430113939,-690.4558179856643) translate(51.450617283950606 44.44444444444444)"/><use xlink:href="#L" transform="matrix(1,0,0,1,-386.1712430113939,-690.4558179856643) translate(104.41358024691357 44.44444444444444)"/><use xlink:href="#M" transform="matrix(1,0,0,1,-386.1712430113939,-690.4558179856643) translate(53.796296296296305 71.11111111111111)"/><use xlink:href="#N" transform="matrix(1,0,0,1,-386.1712430113939,-690.4558179856643) translate(152.43827160493828 71.11111111111111)"/></g><path d="M-361.3-734a6 6 0 0 1 6-6h228a6 6 0 0 1 6 6v48a6 6 0 0 1-6 6h-228a6 6 0 0 1-6-6z" fill="none"/><g><use xlink:href="#O" transform="matrix(1,0,0,1,-361.2870766639244,-740) translate(31.882716049382708 34.44444444444444)"/><use xlink:href="#P" transform="matrix(1,0,0,1,-361.2870766639244,-740) translate(166.14197530864197 34.44444444444444)"/></g><path d="M-718.42 319.83h-.95v-99.36h.95zm0-120.7h-.95v-66.88h.95z" stroke="#3a414a" stroke-width=".05" fill="#3a414a"/><path d="M-718.42 132.26h-.95v-.5h.95zm0-3.44h-.95l.95-.07z" fill="#3a414a"/><path stroke="#3a414a" stroke-width=".05" fill="#3a414a"/><path d="M-718.9 334.6l-4.63-14.27h9.27z" fill="#3a414a"/><path d="M-718.9 336.13l-5.28-16.28h10.57zm-3.98-15.33l4 12.25 3.97-12.25z" stroke="#3a414a" stroke-width=".05" fill="#3a414a"/><g><use xlink:href="#e" transform="matrix(1,0,0,1,-744.0295893519708,199.13335424779197) translate(0 14.222222222222223)"/><use xlink:href="#Q" transform="matrix(1,0,0,1,-744.0295893519708,199.13335424779197) translate(40.39506172839506 14.222222222222223)"/></g><path d="M583.73 319.83h-.95V218.35h.95zm-5.46-217.85l.98.24.94.4.86.52.77.66.66.77.52.87.4.94.23.98.08 1v88.66h-.95V108.4l-.07-.9-.2-.83-.33-.8-.45-.74-.56-.66-.66-.56-.74-.44-.8-.33-.84-.2-.9-.08h-227.3v-.95h227.35z" stroke="#3a414a" stroke-width=".05" fill="#3a414a"/><path d="M349.93 102.85h-.5v-.95h.5z" fill="#3a414a"/><path stroke="#3a414a" stroke-width=".05" fill="#3a414a"/><path d="M583.25 334.6l-4.63-14.27h9.27z" fill="#3a414a"/><path d="M583.25 336.13l-5.3-16.28h10.6zm-3.98-15.33l3.98 12.25 3.98-12.25z" stroke="#3a414a" stroke-width=".05" fill="#3a414a"/><g><use xlink:href="#e" transform="matrix(1,0,0,1,558.117100223032,197.02053548964577) translate(0 14.222222222222223)"/><use xlink:href="#Q" transform="matrix(1,0,0,1,558.117100223032,197.02053548964577) translate(40.39506172839506 14.222222222222223)"/></g><defs><path fill="#333" d="M233-177c-1 41-23 64-60 70L243 0h-38l-65-103H63V0H30v-248c88 3 205-21 203 71zM63-129c60-2 137 13 137-47 0-61-80-42-137-45v92" id="R"/><path fill="#333" d="M101-251c82-7 93 87 43 132L82-64C71-53 59-42 53-27h129V0H18c2-99 128-94 128-182 0-28-16-43-45-43s-46 15-49 41l-32-3c6-41 34-60 81-64" id="S"/><g id="a"><use transform="matrix(0.06172839506172839,0,0,0.06172839506172839,0,0)" xlink:href="#R"/><use transform="matrix(0.06172839506172839,0,0,0.06172839506172839,15.987654320987653,0)" xlink:href="#S"/></g><path fill="#333" d="M194 0L95-120 63-95V0H30v-248h33v124l119-124h40L117-140 236 0h-42" id="T"/><path fill="#333" d="M153-248C145-148 188 4 80 4 36 3 13-21 6-62l32-5c4 25 16 42 43 43 27 0 39-20 39-49v-147H72v-28h81" id="U"/><g id="b"><use transform="matrix(0.06172839506172839,0,0,0.06172839506172839,0,0)" xlink:href="#T"/><use transform="matrix(0.06172839506172839,0,0,0.06172839506172839,14.814814814814813,0)" xlink:href="#U"/></g><path fill="#333" d="M30-248c87 1 191-15 191 75 0 78-77 80-158 76V0H30v-248zm33 125c57 0 124 11 124-50 0-59-68-47-124-48v98" id="V"/><path fill="#333" d="M212-179c-10-28-35-45-73-45-59 0-87 40-87 99 0 60 29 101 89 101 43 0 62-24 78-52l27 14C228-24 195 4 139 4 59 4 22-46 18-125c-6-104 99-153 187-111 19 9 31 26 39 46" id="W"/><g id="c"><use transform="matrix(0.06172839506172839,0,0,0.06172839506172839,0,0)" xlink:href="#V"/><use transform="matrix(0.06172839506172839,0,0,0.06172839506172839,14.814814814814813,0)" xlink:href="#W"/></g><path fill="#333" d="M185-189c-5-48-123-54-124 2 14 75 158 14 163 119 3 78-121 87-175 55-17-10-28-26-33-46l33-7c5 56 141 63 141-1 0-78-155-14-162-118-5-82 145-84 179-34 5 7 8 16 11 25" id="X"/><path fill="#333" d="M206 0h-36l-40-164L89 0H53L-1-190h32L70-26l43-164h34l41 164 42-164h31" id="Y"/><path fill="#333" d="M24-231v-30h32v30H24zM24 0v-190h32V0H24" id="Z"/><path fill="#333" d="M59-47c-2 24 18 29 38 22v24C64 9 27 4 27-40v-127H5v-23h24l9-43h21v43h35v23H59v120" id="aa"/><path fill="#333" d="M96-169c-40 0-48 33-48 73s9 75 48 75c24 0 41-14 43-38l32 2c-6 37-31 61-74 61-59 0-76-41-82-99-10-93 101-131 147-64 4 7 5 14 7 22l-32 3c-4-21-16-35-41-35" id="ab"/><path fill="#333" d="M106-169C34-169 62-67 57 0H25v-261h32l-1 103c12-21 28-36 61-36 89 0 53 116 60 194h-32v-121c2-32-8-49-39-48" id="ac"/><g id="d"><use transform="matrix(0.06172839506172839,0,0,0.06172839506172839,0,0)" xlink:href="#X"/><use transform="matrix(0.06172839506172839,0,0,0.06172839506172839,14.814814814814813,0)" xlink:href="#Y"/><use transform="matrix(0.06172839506172839,0,0,0.06172839506172839,30.80246913580247,0)" xlink:href="#Z"/><use transform="matrix(0.06172839506172839,0,0,0.06172839506172839,35.67901234567901,0)" xlink:href="#aa"/><use transform="matrix(0.06172839506172839,0,0,0.06172839506172839,41.851851851851855,0)" xlink:href="#ab"/><use transform="matrix(0.06172839506172839,0,0,0.06172839506172839,52.96296296296296,0)" xlink:href="#ac"/></g><path fill="#333" d="M24 0v-248h195v40H76v63h132v40H76v65h150V0H24" id="ad"/><path fill="#333" d="M136-208V0H84v-208H4v-40h212v40h-80" id="ae"/><path fill="#333" d="M186 0v-106H76V0H24v-248h52v99h110v-99h50V0h-50" id="af"/><g id="e"><use transform="matrix(0.04938271604938272,0,0,0.04938271604938272,0,0)" xlink:href="#ad"/><use transform="matrix(0.04938271604938272,0,0,0.04938271604938272,11.851851851851853,0)" xlink:href="#ae"/><use transform="matrix(0.04938271604938272,0,0,0.04938271604938272,22.666666666666668,0)" xlink:href="#af"/></g><path fill="#333" d="M128-127c34 4 56 21 59 58 7 91-148 94-172 28-4-9-6-17-7-26l51-5c1 24 16 35 40 36 23 0 39-12 38-36-1-31-31-36-65-34v-40c32 2 59-3 59-33 0-20-13-33-34-33s-33 13-35 32l-50-3c6-44 37-68 86-68 50 0 83 20 83 66 0 35-22 52-53 58" id="ag"/><use transform="matrix(0.04938271604938272,0,0,0.04938271604938272,0,0)" xlink:href="#ag" id="f"/><path fill="#333" d="M27 0v-27h64v-190l-56 39v-29l58-41h29v221h61V0H27" id="ah"/><g id="g"><use transform="matrix(0.06172839506172839,0,0,0.06172839506172839,0,0)" xlink:href="#R"/><use transform="matrix(0.06172839506172839,0,0,0.06172839506172839,15.987654320987653,0)" xlink:href="#ah"/></g><g id="h"><use transform="matrix(0.06172839506172839,0,0,0.06172839506172839,0,0)" xlink:href="#W"/><use transform="matrix(0.06172839506172839,0,0,0.06172839506172839,15.987654320987653,0)" xlink:href="#R"/></g><path fill="#333" d="M33 0v-248h34V0H33" id="ai"/><path fill="#333" d="M117-194c89-4 53 116 60 194h-32v-121c0-31-8-49-39-48C34-167 62-67 57 0H25l-1-190h30c1 10-1 24 2 32 11-22 29-35 61-36" id="aj"/><path fill="#333" d="M100-194c63 0 86 42 84 106H49c0 40 14 67 53 68 26 1 43-12 49-29l28 8c-11 28-37 45-77 45C44 4 14-33 15-96c1-61 26-98 85-98zm52 81c6-60-76-77-97-28-3 7-6 17-6 28h103" id="ak"/><path fill="#333" d="M114-163C36-179 61-72 57 0H25l-1-190h30c1 12-1 29 2 39 6-27 23-49 58-41v29" id="al"/><g id="i"><use transform="matrix(0.06172839506172839,0,0,0.06172839506172839,0,0)" xlink:href="#ai"/><use transform="matrix(0.06172839506172839,0,0,0.06172839506172839,6.172839506172839,0)" xlink:href="#aj"/><use transform="matrix(0.06172839506172839,0,0,0.06172839506172839,18.51851851851852,0)" xlink:href="#aa"/><use transform="matrix(0.06172839506172839,0,0,0.06172839506172839,24.691358024691358,0)" xlink:href="#ak"/><use transform="matrix(0.06172839506172839,0,0,0.06172839506172839,37.03703703703704,0)" xlink:href="#al"/><use transform="matrix(0.06172839506172839,0,0,0.06172839506172839,44.382716049382715,0)" xlink:href="#aj"/><use transform="matrix(0.06172839506172839,0,0,0.06172839506172839,56.72839506172839,0)" xlink:href="#ak"/><use transform="matrix(0.06172839506172839,0,0,0.06172839506172839,69.07407407407408,0)" xlink:href="#aa"/></g><path fill="#333" d="M126-127c33 6 58 20 58 59 0 88-139 92-164 29-3-8-5-16-6-25l32-3c6 27 21 44 54 44 32 0 52-15 52-46 0-38-36-46-79-43v-28c39 1 72-4 72-42 0-27-17-43-46-43-28 0-47 15-49 41l-32-3c6-42 35-63 81-64 48-1 79 21 79 65 0 36-21 52-52 59" id="am"/><g id="j"><use transform="matrix(0.06172839506172839,0,0,0.06172839506172839,0,0)" xlink:href="#R"/><use transform="matrix(0.06172839506172839,0,0,0.06172839506172839,15.987654320987653,0)" xlink:href="#am"/></g><path fill="#333" d="M197 0v-115H63V0H30v-248h33v105h134v-105h34V0h-34" id="an"/><g id="k"><use transform="matrix(0.06172839506172839,0,0,0.06172839506172839,0,0)" xlink:href="#T"/><use transform="matrix(0.06172839506172839,0,0,0.06172839506172839,14.814814814814813,0)" xlink:href="#an"/><use transform="matrix(0.06172839506172839,0,0,0.06172839506172839,30.80246913580247,0)" xlink:href="#ai"/></g><path d="M24 0v-248h195v40H76v63h132v40H76v65h150V0H24" id="ao"/><path d="M136-208V0H84v-208H4v-40h212v40h-80" id="ap"/><path d="M186 0v-106H76V0H24v-248h52v99h110v-99h50V0h-50" id="aq"/><g id="l"><use transform="matrix(0.04938271604938272,0,0,0.04938271604938272,0,0)" xlink:href="#ao"/><use transform="matrix(0.04938271604938272,0,0,0.04938271604938272,11.851851851851853,0)" xlink:href="#ap"/><use transform="matrix(0.04938271604938272,0,0,0.04938271604938272,22.666666666666668,0)" xlink:href="#aq"/></g><path d="M182-182c0 78-84 86-111 141h115V0H12c-6-101 99-100 120-180 1-22-12-31-33-32-23 0-32 14-35 34l-49-3c5-45 32-70 84-70 51 0 83 22 83 69" id="ar"/><use transform="matrix(0.04938271604938272,0,0,0.04938271604938272,0,0)" xlink:href="#ar" id="m"/><path d="M27 0v-27h64v-190l-56 39v-29l58-41h29v221h61V0H27" id="as"/><path d="M99-251c64 0 84 50 84 122C183-37 130 33 47-8c-14-7-20-23-25-40l30-5c6 39 69 39 84 7 9-19 16-44 16-74-10 22-31 35-62 35-49 0-73-33-73-83 0-54 28-83 82-83zm-1 141c31-1 51-18 51-49 0-36-14-67-51-67-34 0-49 23-49 58 0 34 15 58 49 58" id="at"/><path d="M101-251c82-7 93 87 43 132L82-64C71-53 59-42 53-27h129V0H18c2-99 128-94 128-182 0-28-16-43-45-43s-46 15-49 41l-32-3c6-41 34-60 81-64" id="au"/><path d="M33 0v-38h34V0H33" id="av"/><path d="M110-160c48 1 74 30 74 79 0 53-28 85-80 85-65 0-83-55-86-122-5-90 50-162 133-122 14 7 22 21 27 39l-31 6c-5-40-67-38-82-6-9 19-15 44-15 74 11-20 30-34 60-33zm-7 138c34 0 49-23 49-58s-16-56-50-56c-29 0-50 16-49 49 1 36 15 65 50 65" id="aw"/><path d="M134-131c28 9 52 24 51 62-1 50-34 73-85 73S17-19 16-69c0-36 21-54 49-61-75-25-45-126 34-121 46 3 78 18 79 63 0 33-17 51-44 57zm-34-11c31 1 46-15 46-44 0-28-17-43-47-42-29 0-46 13-45 42 1 28 16 44 46 44zm1 122c35 0 51-18 51-52 0-30-18-46-53-46-33 0-51 17-51 47 0 34 19 51 53 51" id="ax"/><path d="M0 4l72-265h28L28 4H0" id="ay"/><path d="M155-56V0h-30v-56H8v-25l114-167h33v167h35v25h-35zm-30-156c-27 46-58 90-88 131h88v-131" id="az"/><g id="n"><use transform="matrix(0.06172839506172839,0,0,0.06172839506172839,0,0)" xlink:href="#as"/><use transform="matrix(0.06172839506172839,0,0,0.06172839506172839,12.345679012345679,0)" xlink:href="#at"/><use transform="matrix(0.06172839506172839,0,0,0.06172839506172839,24.691358024691358,0)" xlink:href="#au"/><use transform="matrix(0.06172839506172839,0,0,0.06172839506172839,37.03703703703704,0)" xlink:href="#av"/><use transform="matrix(0.06172839506172839,0,0,0.06172839506172839,43.20987654320988,0)" xlink:href="#as"/><use transform="matrix(0.06172839506172839,0,0,0.06172839506172839,55.55555555555556,0)" xlink:href="#aw"/><use transform="matrix(0.06172839506172839,0,0,0.06172839506172839,67.90123456790124,0)" xlink:href="#ax"/><use transform="matrix(0.06172839506172839,0,0,0.06172839506172839,80.24691358024693,0)" xlink:href="#av"/><use transform="matrix(0.06172839506172839,0,0,0.06172839506172839,86.41975308641976,0)" xlink:href="#as"/><use transform="matrix(0.06172839506172839,0,0,0.06172839506172839,98.76543209876544,0)" xlink:href="#av"/><use transform="matrix(0.06172839506172839,0,0,0.06172839506172839,104.93827160493828,0)" xlink:href="#as"/><use transform="matrix(0.06172839506172839,0,0,0.06172839506172839,117.28395061728396,0)" xlink:href="#ay"/><use transform="matrix(0.06172839506172839,0,0,0.06172839506172839,123.4567901234568,0)" xlink:href="#au"/><use transform="matrix(0.06172839506172839,0,0,0.06172839506172839,135.80246913580248,0)" xlink:href="#az"/></g><g id="o"><use transform="matrix(0.06172839506172839,0,0,0.06172839506172839,0,0)" xlink:href="#as"/><use transform="matrix(0.06172839506172839,0,0,0.06172839506172839,12.345679012345679,0)" xlink:href="#at"/><use transform="matrix(0.06172839506172839,0,0,0.06172839506172839,24.691358024691358,0)" xlink:href="#au"/><use transform="matrix(0.06172839506172839,0,0,0.06172839506172839,37.03703703703704,0)" xlink:href="#av"/><use transform="matrix(0.06172839506172839,0,0,0.06172839506172839,43.20987654320988,0)" xlink:href="#as"/><use transform="matrix(0.06172839506172839,0,0,0.06172839506172839,55.55555555555556,0)" xlink:href="#aw"/><use transform="matrix(0.06172839506172839,0,0,0.06172839506172839,67.90123456790124,0)" xlink:href="#ax"/><use transform="matrix(0.06172839506172839,0,0,0.06172839506172839,80.24691358024693,0)" xlink:href="#av"/><use transform="matrix(0.06172839506172839,0,0,0.06172839506172839,86.41975308641976,0)" xlink:href="#au"/><use transform="matrix(0.06172839506172839,0,0,0.06172839506172839,98.76543209876544,0)" xlink:href="#av"/><use transform="matrix(0.06172839506172839,0,0,0.06172839506172839,104.93827160493828,0)" xlink:href="#as"/><use transform="matrix(0.06172839506172839,0,0,0.06172839506172839,117.28395061728396,0)" xlink:href="#ay"/><use transform="matrix(0.06172839506172839,0,0,0.06172839506172839,123.4567901234568,0)" xlink:href="#au"/><use transform="matrix(0.06172839506172839,0,0,0.06172839506172839,135.80246913580248,0)" xlink:href="#az"/></g><path d="M126-127c33 6 58 20 58 59 0 88-139 92-164 29-3-8-5-16-6-25l32-3c6 27 21 44 54 44 32 0 52-15 52-46 0-38-36-46-79-43v-28c39 1 72-4 72-42 0-27-17-43-46-43-28 0-47 15-49 41l-32-3c6-42 35-63 81-64 48-1 79 21 79 65 0 36-21 52-52 59" id="aA"/><g id="p"><use transform="matrix(0.06172839506172839,0,0,0.06172839506172839,0,0)" xlink:href="#as"/><use transform="matrix(0.06172839506172839,0,0,0.06172839506172839,12.345679012345679,0)" xlink:href="#at"/><use transform="matrix(0.06172839506172839,0,0,0.06172839506172839,24.691358024691358,0)" xlink:href="#au"/><use transform="matrix(0.06172839506172839,0,0,0.06172839506172839,37.03703703703704,0)" xlink:href="#av"/><use transform="matrix(0.06172839506172839,0,0,0.06172839506172839,43.20987654320988,0)" xlink:href="#as"/><use transform="matrix(0.06172839506172839,0,0,0.06172839506172839,55.55555555555556,0)" xlink:href="#aw"/><use transform="matrix(0.06172839506172839,0,0,0.06172839506172839,67.90123456790124,0)" xlink:href="#ax"/><use transform="matrix(0.06172839506172839,0,0,0.06172839506172839,80.24691358024693,0)" xlink:href="#av"/><use transform="matrix(0.06172839506172839,0,0,0.06172839506172839,86.41975308641976,0)" xlink:href="#aA"/><use transform="matrix(0.06172839506172839,0,0,0.06172839506172839,98.76543209876544,0)" xlink:href="#av"/><use transform="matrix(0.06172839506172839,0,0,0.06172839506172839,104.93827160493828,0)" xlink:href="#as"/><use transform="matrix(0.06172839506172839,0,0,0.06172839506172839,117.28395061728396,0)" xlink:href="#ay"/><use transform="matrix(0.06172839506172839,0,0,0.06172839506172839,123.4567901234568,0)" xlink:href="#au"/><use transform="matrix(0.06172839506172839,0,0,0.06172839506172839,135.80246913580248,0)" xlink:href="#az"/></g><path fill="#333" d="M165-50V0h-47v-50H5v-38l105-160h55v161h33v37h-33zm-47-37l2-116L46-87h72" id="aB"/><g id="q"><use transform="matrix(0.04938271604938272,0,0,0.04938271604938272,0,0)" xlink:href="#ad"/><use transform="matrix(0.04938271604938272,0,0,0.04938271604938272,11.851851851851853,0)" xlink:href="#ae"/><use transform="matrix(0.04938271604938272,0,0,0.04938271604938272,22.666666666666668,0)" xlink:href="#af"/><use transform="matrix(0.04938271604938272,0,0,0.04938271604938272,35.45679012345679,0)" xlink:href="#aB"/></g><path fill="#333" d="M23 0v-37h61v-169l-59 37v-38l62-41h46v211h57V0H23" id="aC"/><use transform="matrix(0.04938271604938272,0,0,0.04938271604938272,0,0)" xlink:href="#aC" id="r"/><path d="M33 0v-248h34V0H33" id="aD"/><path d="M30-248c87 1 191-15 191 75 0 78-77 80-158 76V0H30v-248zm33 125c57 0 124 11 124-50 0-59-68-47-124-48v98" id="aE"/><g id="s"><use transform="matrix(0.06172839506172839,0,0,0.06172839506172839,0,0)" xlink:href="#aD"/><use transform="matrix(0.06172839506172839,0,0,0.06172839506172839,6.172839506172839,0)" xlink:href="#aE"/></g><path d="M232-93c-1 65-40 97-104 97C67 4 28-28 28-90v-158h33c8 89-33 224 67 224 102 0 64-133 71-224h33v155" id="aF"/><path d="M160-131c35 5 61 23 61 61C221 17 115-2 30 0v-248c76 3 177-17 177 60 0 33-19 50-47 57zm-97-11c50-1 110 9 110-42 0-47-63-36-110-37v79zm0 115c55-2 124 14 124-45 0-56-70-42-124-44v89" id="aG"/><g id="t"><use transform="matrix(0.06172839506172839,0,0,0.06172839506172839,0,0)" xlink:href="#aE"/><use transform="matrix(0.06172839506172839,0,0,0.06172839506172839,14.814814814814813,0)" xlink:href="#aF"/><use transform="matrix(0.06172839506172839,0,0,0.06172839506172839,30.80246913580247,0)" xlink:href="#aG"/></g><path d="M101-251c68 0 85 55 85 127S166 4 100 4C33 4 14-52 14-124c0-73 17-127 87-127zm-1 229c47 0 54-49 54-102s-4-102-53-102c-51 0-55 48-55 102 0 53 5 102 54 102" id="aH"/><path d="M54-142c48-35 137-8 131 61C196 18 31 33 14-55l32-4c7 23 22 37 52 37 35-1 51-22 54-58 4-55-73-65-99-34H22l8-134h141v27H59" id="aI"/><g id="u"><use transform="matrix(0.06172839506172839,0,0,0.06172839506172839,0,0)" xlink:href="#au"/><use transform="matrix(0.06172839506172839,0,0,0.06172839506172839,12.345679012345679,0)" xlink:href="#aH"/><use transform="matrix(0.06172839506172839,0,0,0.06172839506172839,24.691358024691358,0)" xlink:href="#av"/><use transform="matrix(0.06172839506172839,0,0,0.06172839506172839,30.864197530864196,0)" xlink:href="#aI"/><use transform="matrix(0.06172839506172839,0,0,0.06172839506172839,43.20987654320987,0)" xlink:href="#av"/><use transform="matrix(0.06172839506172839,0,0,0.06172839506172839,49.382716049382715,0)" xlink:href="#aI"/><use transform="matrix(0.06172839506172839,0,0,0.06172839506172839,61.72839506172839,0)" xlink:href="#av"/><use transform="matrix(0.06172839506172839,0,0,0.06172839506172839,67.90123456790123,0)" xlink:href="#au"/><use transform="matrix(0.06172839506172839,0,0,0.06172839506172839,80.24691358024691,0)" xlink:href="#ay"/><use transform="matrix(0.06172839506172839,0,0,0.06172839506172839,86.41975308641975,0)" xlink:href="#au"/><use transform="matrix(0.06172839506172839,0,0,0.06172839506172839,98.76543209876543,0)" xlink:href="#at"/></g><g id="v"><use transform="matrix(0.06172839506172839,0,0,0.06172839506172839,0,0)" xlink:href="#aD"/><use transform="matrix(0.06172839506172839,0,0,0.06172839506172839,6.172839506172839,0)" xlink:href="#aE"/><use transform="matrix(0.06172839506172839,0,0,0.06172839506172839,20.98765432098765,0)" xlink:href="#aD"/><use transform="matrix(0.06172839506172839,0,0,0.06172839506172839,27.16049382716049,0)" xlink:href="#aE"/></g><path d="M127-220V0H93v-220H8v-28h204v28h-85" id="aJ"/><path d="M190 0L58-211 59 0H30v-248h39L202-35l-2-213h31V0h-41" id="aK"/><path d="M30 0v-248h187v28H63v79h144v27H63v87h162V0H30" id="aL"/><path d="M30 0v-248h33v221h125V0H30" id="aM"/><g id="w"><use transform="matrix(0.06172839506172839,0,0,0.06172839506172839,0,0)" xlink:href="#aJ"/><use transform="matrix(0.06172839506172839,0,0,0.06172839506172839,13.518518518518517,0)" xlink:href="#aF"/><use transform="matrix(0.06172839506172839,0,0,0.06172839506172839,29.50617283950617,0)" xlink:href="#aK"/><use transform="matrix(0.06172839506172839,0,0,0.06172839506172839,45.49382716049382,0)" xlink:href="#aK"/><use transform="matrix(0.06172839506172839,0,0,0.06172839506172839,61.481481481481474,0)" xlink:href="#aL"/><use transform="matrix(0.06172839506172839,0,0,0.06172839506172839,76.29629629629629,0)" xlink:href="#aM"/></g><g id="x"><use transform="matrix(0.06172839506172839,0,0,0.06172839506172839,0,0)" xlink:href="#as"/><use transform="matrix(0.06172839506172839,0,0,0.06172839506172839,10.679012345679013,0)" xlink:href="#as"/><use transform="matrix(0.06172839506172839,0,0,0.06172839506172839,23.02469135802469,0)" xlink:href="#av"/><use transform="matrix(0.06172839506172839,0,0,0.06172839506172839,29.197530864197528,0)" xlink:href="#as"/><use transform="matrix(0.06172839506172839,0,0,0.06172839506172839,39.87654320987654,0)" xlink:href="#as"/><use transform="matrix(0.06172839506172839,0,0,0.06172839506172839,52.222222222222214,0)" xlink:href="#av"/><use transform="matrix(0.06172839506172839,0,0,0.06172839506172839,58.395061728395056,0)" xlink:href="#as"/><use transform="matrix(0.06172839506172839,0,0,0.06172839506172839,69.07407407407408,0)" xlink:href="#as"/><use transform="matrix(0.06172839506172839,0,0,0.06172839506172839,81.41975308641976,0)" xlink:href="#av"/><use transform="matrix(0.06172839506172839,0,0,0.06172839506172839,87.5925925925926,0)" xlink:href="#au"/><use transform="matrix(0.06172839506172839,0,0,0.06172839506172839,99.93827160493828,0)" xlink:href="#ay"/><use transform="matrix(0.06172839506172839,0,0,0.06172839506172839,106.11111111111111,0)" xlink:href="#au"/><use transform="matrix(0.06172839506172839,0,0,0.06172839506172839,118.4567901234568,0)" xlink:href="#at"/></g><g id="y"><use transform="matrix(0.06172839506172839,0,0,0.06172839506172839,0,0)" xlink:href="#au"/><use transform="matrix(0.06172839506172839,0,0,0.06172839506172839,12.345679012345679,0)" xlink:href="#aH"/><use transform="matrix(0.06172839506172839,0,0,0.06172839506172839,24.691358024691358,0)" xlink:href="#av"/><use transform="matrix(0.06172839506172839,0,0,0.06172839506172839,30.864197530864196,0)" xlink:href="#aI"/><use transform="matrix(0.06172839506172839,0,0,0.06172839506172839,43.20987654320987,0)" xlink:href="#av"/><use transform="matrix(0.06172839506172839,0,0,0.06172839506172839,49.382716049382715,0)" xlink:href="#aI"/><use transform="matrix(0.06172839506172839,0,0,0.06172839506172839,61.72839506172839,0)" xlink:href="#av"/><use transform="matrix(0.06172839506172839,0,0,0.06172839506172839,67.90123456790123,0)" xlink:href="#as"/><use transform="matrix(0.06172839506172839,0,0,0.06172839506172839,80.24691358024691,0)" xlink:href="#ay"/><use transform="matrix(0.06172839506172839,0,0,0.06172839506172839,86.41975308641975,0)" xlink:href="#au"/><use transform="matrix(0.06172839506172839,0,0,0.06172839506172839,98.76543209876543,0)" xlink:href="#at"/></g><g id="z"><use transform="matrix(0.06172839506172839,0,0,0.06172839506172839,0,0)" xlink:href="#au"/><use transform="matrix(0.06172839506172839,0,0,0.06172839506172839,12.345679012345679,0)" xlink:href="#aH"/><use transform="matrix(0.06172839506172839,0,0,0.06172839506172839,24.691358024691358,0)" xlink:href="#av"/><use transform="matrix(0.06172839506172839,0,0,0.06172839506172839,30.864197530864196,0)" xlink:href="#aA"/><use transform="matrix(0.06172839506172839,0,0,0.06172839506172839,43.20987654320987,0)" xlink:href="#av"/><use transform="matrix(0.06172839506172839,0,0,0.06172839506172839,49.382716049382715,0)" xlink:href="#aA"/><use transform="matrix(0.06172839506172839,0,0,0.06172839506172839,61.72839506172839,0)" xlink:href="#av"/><use transform="matrix(0.06172839506172839,0,0,0.06172839506172839,67.90123456790123,0)" xlink:href="#as"/><use transform="matrix(0.06172839506172839,0,0,0.06172839506172839,80.24691358024691,0)" xlink:href="#ay"/><use transform="matrix(0.06172839506172839,0,0,0.06172839506172839,86.41975308641975,0)" xlink:href="#au"/><use transform="matrix(0.06172839506172839,0,0,0.06172839506172839,98.76543209876543,0)" xlink:href="#at"/></g><g id="A"><use transform="matrix(0.06172839506172839,0,0,0.06172839506172839,0,0)" xlink:href="#au"/><use transform="matrix(0.06172839506172839,0,0,0.06172839506172839,12.345679012345679,0)" xlink:href="#aH"/><use transform="matrix(0.06172839506172839,0,0,0.06172839506172839,24.691358024691358,0)" xlink:href="#av"/><use transform="matrix(0.06172839506172839,0,0,0.06172839506172839,30.864197530864196,0)" xlink:href="#aA"/><use transform="matrix(0.06172839506172839,0,0,0.06172839506172839,43.20987654320987,0)" xlink:href="#av"/><use transform="matrix(0.06172839506172839,0,0,0.06172839506172839,49.382716049382715,0)" xlink:href="#aA"/><use transform="matrix(0.06172839506172839,0,0,0.06172839506172839,61.72839506172839,0)" xlink:href="#av"/><use transform="matrix(0.06172839506172839,0,0,0.06172839506172839,67.90123456790123,0)" xlink:href="#au"/><use transform="matrix(0.06172839506172839,0,0,0.06172839506172839,80.24691358024691,0)" xlink:href="#ay"/><use transform="matrix(0.06172839506172839,0,0,0.06172839506172839,86.41975308641975,0)" xlink:href="#au"/><use transform="matrix(0.06172839506172839,0,0,0.06172839506172839,98.76543209876543,0)" xlink:href="#at"/></g><g id="B"><use transform="matrix(0.06172839506172839,0,0,0.06172839506172839,0,0)" xlink:href="#as"/><use transform="matrix(0.06172839506172839,0,0,0.06172839506172839,10.679012345679013,0)" xlink:href="#as"/><use transform="matrix(0.06172839506172839,0,0,0.06172839506172839,23.02469135802469,0)" xlink:href="#av"/><use transform="matrix(0.06172839506172839,0,0,0.06172839506172839,29.197530864197528,0)" xlink:href="#as"/><use transform="matrix(0.06172839506172839,0,0,0.06172839506172839,39.87654320987654,0)" xlink:href="#as"/><use transform="matrix(0.06172839506172839,0,0,0.06172839506172839,52.222222222222214,0)" xlink:href="#av"/><use transform="matrix(0.06172839506172839,0,0,0.06172839506172839,58.395061728395056,0)" xlink:href="#as"/><use transform="matrix(0.06172839506172839,0,0,0.06172839506172839,69.07407407407408,0)" xlink:href="#as"/><use transform="matrix(0.06172839506172839,0,0,0.06172839506172839,81.41975308641976,0)" xlink:href="#av"/><use transform="matrix(0.06172839506172839,0,0,0.06172839506172839,87.5925925925926,0)" xlink:href="#as"/><use transform="matrix(0.06172839506172839,0,0,0.06172839506172839,99.93827160493828,0)" xlink:href="#ay"/><use transform="matrix(0.06172839506172839,0,0,0.06172839506172839,106.11111111111111,0)" xlink:href="#au"/><use transform="matrix(0.06172839506172839,0,0,0.06172839506172839,118.4567901234568,0)" xlink:href="#at"/></g><g id="C"><use transform="matrix(0.06172839506172839,0,0,0.06172839506172839,0,0)" xlink:href="#as"/><use transform="matrix(0.06172839506172839,0,0,0.06172839506172839,12.345679012345679,0)" xlink:href="#aI"/><use transform="matrix(0.06172839506172839,0,0,0.06172839506172839,24.691358024691358,0)" xlink:href="#av"/><use transform="matrix(0.06172839506172839,0,0,0.06172839506172839,30.864197530864196,0)" xlink:href="#as"/><use transform="matrix(0.06172839506172839,0,0,0.06172839506172839,43.20987654320987,0)" xlink:href="#aI"/><use transform="matrix(0.06172839506172839,0,0,0.06172839506172839,55.55555555555555,0)" xlink:href="#av"/><use transform="matrix(0.06172839506172839,0,0,0.06172839506172839,61.72839506172839,0)" xlink:href="#as"/><use transform="matrix(0.06172839506172839,0,0,0.06172839506172839,74.07407407407408,0)" xlink:href="#aI"/><use transform="matrix(0.06172839506172839,0,0,0.06172839506172839,86.41975308641976,0)" xlink:href="#av"/><use transform="matrix(0.06172839506172839,0,0,0.06172839506172839,92.5925925925926,0)" xlink:href="#as"/><use transform="matrix(0.06172839506172839,0,0,0.06172839506172839,104.93827160493828,0)" xlink:href="#ay"/><use transform="matrix(0.06172839506172839,0,0,0.06172839506172839,111.11111111111111,0)" xlink:href="#au"/><use transform="matrix(0.06172839506172839,0,0,0.06172839506172839,123.4567901234568,0)" xlink:href="#at"/></g><g id="D"><use transform="matrix(0.06172839506172839,0,0,0.06172839506172839,0,0)" xlink:href="#as"/><use transform="matrix(0.06172839506172839,0,0,0.06172839506172839,12.345679012345679,0)" xlink:href="#aI"/><use transform="matrix(0.06172839506172839,0,0,0.06172839506172839,24.691358024691358,0)" xlink:href="#av"/><use transform="matrix(0.06172839506172839,0,0,0.06172839506172839,30.864197530864196,0)" xlink:href="#as"/><use transform="matrix(0.06172839506172839,0,0,0.06172839506172839,43.20987654320987,0)" xlink:href="#aI"/><use transform="matrix(0.06172839506172839,0,0,0.06172839506172839,55.55555555555555,0)" xlink:href="#av"/><use transform="matrix(0.06172839506172839,0,0,0.06172839506172839,61.72839506172839,0)" xlink:href="#as"/><use transform="matrix(0.06172839506172839,0,0,0.06172839506172839,74.07407407407408,0)" xlink:href="#aI"/><use transform="matrix(0.06172839506172839,0,0,0.06172839506172839,86.41975308641976,0)" xlink:href="#av"/><use transform="matrix(0.06172839506172839,0,0,0.06172839506172839,92.5925925925926,0)" xlink:href="#au"/><use transform="matrix(0.06172839506172839,0,0,0.06172839506172839,104.93827160493828,0)" xlink:href="#ay"/><use transform="matrix(0.06172839506172839,0,0,0.06172839506172839,111.11111111111111,0)" xlink:href="#au"/><use transform="matrix(0.06172839506172839,0,0,0.06172839506172839,123.4567901234568,0)" xlink:href="#at"/></g><path fill="#333" d="M238-95c0 69-44 99-111 99C63 4 22-25 22-93v-155h51v151c-1 38 19 59 55 60 90 1 49-130 58-211h52v153" id="aN"/><path fill="#333" d="M175 0L67-191c6 58 2 128 3 191H24v-248h59L193-55c-6-58-2-129-3-193h46V0h-61" id="aO"/><path fill="#333" d="M24 0v-248h52v208h133V0H24" id="aP"/><g id="E"><use transform="matrix(0.04938271604938272,0,0,0.04938271604938272,0,0)" xlink:href="#ae"/><use transform="matrix(0.04938271604938272,0,0,0.04938271604938272,10.814814814814815,0)" xlink:href="#aN"/><use transform="matrix(0.04938271604938272,0,0,0.04938271604938272,23.60493827160494,0)" xlink:href="#aO"/><use transform="matrix(0.04938271604938272,0,0,0.04938271604938272,36.39506172839506,0)" xlink:href="#aO"/><use transform="matrix(0.04938271604938272,0,0,0.04938271604938272,49.18518518518519,0)" xlink:href="#ad"/><use transform="matrix(0.04938271604938272,0,0,0.04938271604938272,61.037037037037045,0)" xlink:href="#aP"/></g><path d="M205 0l-28-72H64L36 0H1l101-248h38L239 0h-34zm-38-99l-47-123c-12 45-31 82-46 123h93" id="aQ"/><path d="M240 0l2-218c-23 76-54 145-80 218h-23L58-218 59 0H30v-248h44l77 211c21-75 51-140 76-211h43V0h-30" id="aR"/><g id="F"><use transform="matrix(0.06172839506172839,0,0,0.06172839506172839,0,0)" xlink:href="#aK"/><use transform="matrix(0.06172839506172839,0,0,0.06172839506172839,15.987654320987653,0)" xlink:href="#aQ"/><use transform="matrix(0.06172839506172839,0,0,0.06172839506172839,30.80246913580247,0)" xlink:href="#aR"/><use transform="matrix(0.06172839506172839,0,0,0.06172839506172839,49.25925925925925,0)" xlink:href="#aQ"/></g><path d="M33-154v-36h34v36H33zM33 0v-36h34V0H33" id="aS"/><use transform="matrix(0.06172839506172839,0,0,0.06172839506172839,0,0)" xlink:href="#aS" id="G"/><path d="M100-194c63 0 86 42 84 106H49c0 40 14 67 53 68 26 1 43-12 49-29l28 8c-11 28-37 45-77 45C44 4 14-33 15-96c1-61 26-98 85-98zm52 81c6-60-76-77-97-28-3 7-6 17-6 28h103" id="aT"/><path d="M85-194c31 0 48 13 60 33l-1-100h32l1 261h-30c-2-10 0-23-3-31C134-8 116 4 85 4 32 4 16-35 15-94c0-66 23-100 70-100zm9 24c-40 0-46 34-46 75 0 40 6 74 45 74 42 0 51-32 51-76 0-42-9-74-50-73" id="aU"/><path d="M179-190L93 31C79 59 56 82 12 73V49c39 6 53-20 64-50L1-190h34L92-34l54-156h33" id="aV"/><g id="H"><use transform="matrix(0.06172839506172839,0,0,0.06172839506172839,0,0)" xlink:href="#aJ"/><use transform="matrix(0.06172839506172839,0,0,0.06172839506172839,11.049382716049381,0)" xlink:href="#aT"/><use transform="matrix(0.06172839506172839,0,0,0.06172839506172839,23.39506172839506,0)" xlink:href="#aU"/><use transform="matrix(0.06172839506172839,0,0,0.06172839506172839,35.74074074074074,0)" xlink:href="#aU"/><use transform="matrix(0.06172839506172839,0,0,0.06172839506172839,48.08641975308642,0)" xlink:href="#aV"/></g><path d="M24-231v-30h32v30H24zM24 0v-190h32V0H24" id="aW"/><g id="I"><use transform="matrix(0.06172839506172839,0,0,0.06172839506172839,0,0)" xlink:href="#aQ"/><use transform="matrix(0.06172839506172839,0,0,0.06172839506172839,14.814814814814813,0)" xlink:href="#aU"/><use transform="matrix(0.06172839506172839,0,0,0.06172839506172839,27.160493827160494,0)" xlink:href="#aW"/></g><path d="M194 0L95-120 63-95V0H30v-248h33v124l119-124h40L117-140 236 0h-42" id="aX"/><path d="M84 4C-5 8 30-112 23-190h32v120c0 31 7 50 39 49 72-2 45-101 50-169h31l1 190h-30c-1-10 1-25-2-33-11 22-28 36-60 37" id="aY"/><path d="M135-143c-3-34-86-38-87 0 15 53 115 12 119 90S17 21 10-45l28-5c4 36 97 45 98 0-10-56-113-15-118-90-4-57 82-63 122-42 12 7 21 19 24 35" id="aZ"/><path d="M210-169c-67 3-38 105-44 169h-31v-121c0-29-5-50-35-48C34-165 62-65 56 0H25l-1-190h30c1 10-1 24 2 32 10-44 99-50 107 0 11-21 27-35 58-36 85-2 47 119 55 194h-31v-121c0-29-5-49-35-48" id="ba"/><path d="M141-36C126-15 110 5 73 4 37 3 15-17 15-53c-1-64 63-63 125-63 3-35-9-54-41-54-24 1-41 7-42 31l-33-3c5-37 33-52 76-52 45 0 72 20 72 64v82c-1 20 7 32 28 27v20c-31 9-61-2-59-35zM48-53c0 20 12 33 32 33 41-3 63-29 60-74-43 2-92-5-92 41" id="bb"/><g id="J"><use transform="matrix(0.06172839506172839,0,0,0.06172839506172839,0,0)" xlink:href="#aX"/><use transform="matrix(0.06172839506172839,0,0,0.06172839506172839,14.814814814814813,0)" xlink:href="#aY"/><use transform="matrix(0.06172839506172839,0,0,0.06172839506172839,27.160493827160494,0)" xlink:href="#aZ"/><use transform="matrix(0.06172839506172839,0,0,0.06172839506172839,38.27160493827161,0)" xlink:href="#aY"/><use transform="matrix(0.06172839506172839,0,0,0.06172839506172839,50.617283950617285,0)" xlink:href="#ba"/><use transform="matrix(0.06172839506172839,0,0,0.06172839506172839,69.07407407407408,0)" xlink:href="#bb"/></g><g id="K"><use transform="matrix(0.06172839506172839,0,0,0.06172839506172839,0,0)" xlink:href="#aK"/><use transform="matrix(0.06172839506172839,0,0,0.06172839506172839,15.987654320987653,0)" xlink:href="#aD"/><use transform="matrix(0.06172839506172839,0,0,0.06172839506172839,22.160493827160494,0)" xlink:href="#aR"/><use transform="matrix(0.06172839506172839,0,0,0.06172839506172839,40.61728395061728,0)" xlink:href="#aS"/></g><g id="L"><use transform="matrix(0.06172839506172839,0,0,0.06172839506172839,0,0)" xlink:href="#au"/><use transform="matrix(0.06172839506172839,0,0,0.06172839506172839,12.345679012345679,0)" xlink:href="#aH"/><use transform="matrix(0.06172839506172839,0,0,0.06172839506172839,24.691358024691358,0)" xlink:href="#au"/><use transform="matrix(0.06172839506172839,0,0,0.06172839506172839,37.03703703703704,0)" xlink:href="#as"/><use transform="matrix(0.06172839506172839,0,0,0.06172839506172839,49.382716049382715,0)" xlink:href="#aH"/><use transform="matrix(0.06172839506172839,0,0,0.06172839506172839,61.72839506172839,0)" xlink:href="#ax"/><use transform="matrix(0.06172839506172839,0,0,0.06172839506172839,74.07407407407408,0)" xlink:href="#aH"/><use transform="matrix(0.06172839506172839,0,0,0.06172839506172839,86.41975308641976,0)" xlink:href="#as"/><use transform="matrix(0.06172839506172839,0,0,0.06172839506172839,97.09876543209877,0)" xlink:href="#as"/><use transform="matrix(0.06172839506172839,0,0,0.06172839506172839,109.44444444444446,0)" xlink:href="#az"/><use transform="matrix(0.06172839506172839,0,0,0.06172839506172839,121.79012345679014,0)" xlink:href="#at"/></g><path d="M153-248C145-148 188 4 80 4 36 3 13-21 6-62l32-5c4 25 16 42 43 43 27 0 39-20 39-49v-147H72v-28h81" id="bc"/><path d="M233-177c-1 41-23 64-60 70L243 0h-38l-65-103H63V0H30v-248c88 3 205-21 203 71zM63-129c60-2 137 13 137-47 0-61-80-42-137-45v92" id="bd"/><path d="M140-251c81 0 123 46 123 126C263-46 219 4 140 4 59 4 17-45 17-125s42-126 123-126zm0 227c63 0 89-41 89-101s-29-99-89-99c-61 0-89 39-89 99S79-25 140-24" id="be"/><g id="M"><use transform="matrix(0.06172839506172839,0,0,0.06172839506172839,0,0)" xlink:href="#bc"/><use transform="matrix(0.06172839506172839,0,0,0.06172839506172839,11.11111111111111,0)" xlink:href="#aQ"/><use transform="matrix(0.06172839506172839,0,0,0.06172839506172839,25.925925925925924,0)" xlink:href="#bd"/><use transform="matrix(0.06172839506172839,0,0,0.06172839506172839,41.913580246913575,0)" xlink:href="#aX"/><use transform="matrix(0.06172839506172839,0,0,0.06172839506172839,56.72839506172839,0)" xlink:href="#be"/><use transform="matrix(0.06172839506172839,0,0,0.06172839506172839,74.01234567901234,0)" xlink:href="#aR"/></g><g id="N"><use transform="matrix(0.06172839506172839,0,0,0.06172839506172839,0,0)" xlink:href="#aM"/><use transform="matrix(0.06172839506172839,0,0,0.06172839506172839,12.345679012345679,0)" xlink:href="#aQ"/><use transform="matrix(0.06172839506172839,0,0,0.06172839506172839,27.160493827160494,0)" xlink:href="#aK"/><use transform="matrix(0.06172839506172839,0,0,0.06172839506172839,43.148148148148145,0)" xlink:href="#bc"/><use transform="matrix(0.06172839506172839,0,0,0.06172839506172839,54.25925925925925,0)" xlink:href="#aF"/><use transform="matrix(0.06172839506172839,0,0,0.06172839506172839,70.24691358024691,0)" xlink:href="#aJ"/></g><path d="M143 4C61 4 22-44 18-125c-5-107 100-154 193-111 17 8 29 25 37 43l-32 9c-13-25-37-40-76-40-61 0-88 39-88 99 0 61 29 100 91 101 35 0 62-11 79-27v-45h-74v-28h105v86C228-13 192 4 143 4" id="bf"/><g id="O"><use transform="matrix(0.06172839506172839,0,0,0.06172839506172839,0,0)" xlink:href="#aJ"/><use transform="matrix(0.06172839506172839,0,0,0.06172839506172839,13.518518518518517,0)" xlink:href="#aF"/><use transform="matrix(0.06172839506172839,0,0,0.06172839506172839,29.50617283950617,0)" xlink:href="#aK"/><use transform="matrix(0.06172839506172839,0,0,0.06172839506172839,45.49382716049382,0)" xlink:href="#aK"/><use transform="matrix(0.06172839506172839,0,0,0.06172839506172839,61.481481481481474,0)" xlink:href="#aL"/><use transform="matrix(0.06172839506172839,0,0,0.06172839506172839,76.29629629629629,0)" xlink:href="#aM"/><use transform="matrix(0.06172839506172839,0,0,0.06172839506172839,88.64197530864197,0)" xlink:href="#aD"/><use transform="matrix(0.06172839506172839,0,0,0.06172839506172839,94.81481481481481,0)" xlink:href="#aK"/><use transform="matrix(0.06172839506172839,0,0,0.06172839506172839,110.80246913580247,0)" xlink:href="#bf"/></g><g id="P"><use transform="matrix(0.06172839506172839,0,0,0.06172839506172839,0,0)" xlink:href="#aD"/><use transform="matrix(0.06172839506172839,0,0,0.06172839506172839,6.172839506172839,0)" xlink:href="#aE"/><use transform="matrix(0.06172839506172839,0,0,0.06172839506172839,20.98765432098765,0)" xlink:href="#aD"/><use transform="matrix(0.06172839506172839,0,0,0.06172839506172839,27.16049382716049,0)" xlink:href="#aE"/></g><use transform="matrix(0.04938271604938272,0,0,0.04938271604938272,0,0)" xlink:href="#aB" id="Q"/></defs></g></svg>